<svg width="288" height="550" viewBox="0 0 288 550" fill="none" xmlns="http://www.w3.org/2000/svg">
<path fill-rule="evenodd" clip-rule="evenodd" d="M158.764 3.23614V29.1253H161.996V0H155.53V3.23614H158.764ZM124.273 72.8491H127.506V43.7239H121.039V46.96H124.273V72.8491ZM72.5375 107.368V81.4788H69.3039V78.2427H75.7709V107.368H72.5375ZM179.242 210.924H176.009V185.035H172.775V181.799H179.242V210.924ZM58.5257 227.824H72.5375V219.554H69.3039V216.318H75.7709V227.824H81.699V219.554H84.9324V227.824H91.3994V222.79H94.6328V219.554H97.8663V227.824H124.273V219.554H121.039V216.318H127.506V227.824H133.434V219.554H136.668V227.824H143.135V222.79H146.368V219.554H149.602V227.824H185.169V219.554H188.403V227.824H194.87V222.79H198.103V219.554H201.337V227.824H210.499V219.554H207.265V216.318H213.732V227.824H219.66V219.554H222.894V227.824H229.361V222.79H232.594V219.554H235.828V227.824H247.181H252.929V233.577V250.837V256.59H247.181H235.684V279.603H264.426H270.174V285.356V296.862H281.671H287.419V302.615V371.653V377.406H281.671H270.174V388.912V394.665H264.426H252.929V406.172V411.925H247.181H201.194V423.431V429.184H195.445H183.948V440.69V446.444H178.2H166.703V503.975H195.445H201.194V509.728V544.247V550H195.445H91.9742H86.2258V544.247V509.728V503.975H91.9742H120.716V446.444H109.219H103.471V440.69V429.184H91.9742H86.2258V423.431V411.925H40.2387H34.4903V406.172V394.665H22.9936H17.2452V388.912V377.406H5.74839H0V371.653V302.615V296.862H5.74839H17.2452V285.356V279.603H22.9936H51.7355V256.59H40.2387H34.4903V250.837V233.577V227.824H40.2387H55.2924V219.554H52.0588V216.318H58.5257V227.824ZM232.594 219.554H222.894V216.318H232.594V219.554ZM198.103 219.554H188.403V216.318H198.103V219.554ZM146.368 219.554H136.668V216.318H146.368V219.554ZM94.6328 219.554H84.9324V216.318H94.6328V219.554ZM163.613 210.924V207.688H166.847V185.035H163.613V181.799H153.913V185.035H150.679V207.688H153.913V210.924H163.613ZM157.147 197.979V204.453H153.913V207.688H163.613V194.744H160.38V188.271H163.613V185.035H153.913V197.979H157.147ZM157.147 197.979V194.744H160.38V197.979H157.147ZM163.613 107.368V104.132H166.847V81.4788H163.613V78.2427H153.913V81.4788H150.679V104.132H153.913V107.368H163.613ZM157.147 94.4234V100.896H153.913V104.132H163.613V91.1872H160.38V84.715H163.613V81.4788H153.913V94.4234H157.147ZM157.147 94.4234V91.1872H160.38V94.4234H157.147ZM230.977 176.405H227.744V150.516H224.51V147.28H230.977V176.405ZM196.487 78.2427V107.368H193.254V81.4788H190.02V78.2427H196.487ZM176.009 150.516V176.405H179.242V147.28H172.775V150.516H176.009ZM227.744 185.035H224.51V181.799H230.977V210.924H227.744V185.035ZM110.728 176.405V173.169H113.962V150.516H110.728V147.28H101.028V150.516H97.7945V173.169H101.028V176.405H110.728ZM104.261 163.46V169.934H101.028V173.169H110.728V160.225H107.495V153.753H110.728V150.516H101.028V163.46H104.261ZM104.261 163.46V160.225H107.495V163.46H104.261ZM89.7827 176.405V150.516H86.5491V147.28H93.016V176.405H89.7827ZM77.3877 138.651V141.886H67.6873V138.651H77.3877ZM74.1542 125.706H77.3877V138.651H80.6211V115.997H77.3877V112.762H67.6873V115.997H64.4538V138.651H67.6873V135.415H70.9207V128.942H74.1542V125.706ZM74.1542 125.706H70.9207V128.942H67.6873V115.997H77.3877V119.234H74.1542V125.706ZM121.039 115.997H124.273V141.886H127.506V112.762H121.039V115.997ZM94.6328 207.688V210.924H84.9324V207.688H94.6328ZM91.3994 194.744H94.6328V207.688H97.8663V185.035H94.6328V181.799H84.9324V185.035H81.699V207.688H84.9324V204.453H88.1659V197.979H91.3994V194.744ZM91.3994 194.744H88.1659V197.979H84.9324V185.035H94.6328V188.271H91.3994V194.744ZM60.1425 210.924V207.688H63.376V185.035H60.1425V181.799H50.4421V185.035H47.2086V207.688H50.4421V210.924H60.1425ZM53.6756 197.979V204.453H50.4421V207.688H60.1425V194.744H56.909V188.271H60.1425V185.035H50.4421V197.979H53.6756ZM53.6756 197.979V194.744H56.909V197.979H53.6756ZM110.728 69.613V72.8491H101.028V69.613H110.728ZM107.495 56.6684H110.728V69.613H113.962V46.96H110.728V43.7239H101.028V46.96H97.7945V69.613H101.028V66.3768H104.261V59.9046H107.495V56.6684ZM107.495 56.6684H104.261V59.9046H101.028V46.96H110.728V50.1961H107.495V56.6684ZM198.103 72.8491V69.613H201.337V46.96H198.103V43.7239H188.403V46.96H185.169V69.613H188.403V72.8491H198.103ZM191.637 59.9046V66.3768H188.403V69.613H198.103V56.6684H194.87V50.1961H198.103V46.96H188.403V59.9046H191.637ZM191.637 59.9046V56.6684H194.87V59.9046H191.637ZM198.103 138.651V141.886H188.403V138.651H198.103ZM194.87 125.706H198.103V138.651H201.337V115.997H198.103V112.762H188.403V115.997H185.169V138.651H188.403V135.415H191.637V128.942H194.87V125.706ZM194.87 125.706H191.637V128.942H188.403V115.997H198.103V119.234H194.87V125.706ZM146.368 173.169V176.405H136.668V173.169H146.368ZM143.135 160.225H146.368V173.169H149.602V150.516H146.368V147.28H136.668V150.516H133.434V173.169H136.668V169.934H139.902V163.46H143.135V160.225ZM143.135 160.225H139.902V163.46H136.668V150.516H146.368V153.753H143.135V160.225ZM124.273 210.924V185.035H121.039V181.799H127.506V210.924H124.273ZM215.348 210.924V207.688H218.582V185.035H215.348V181.799H205.649V185.035H202.415V207.688H205.649V210.924H215.348ZM208.883 197.979V204.453H205.649V207.688H215.348V194.744H212.116V188.271H215.348V185.035H205.649V197.979H208.883ZM208.883 197.979V194.744H212.116V197.979H208.883ZM158.764 115.997V141.886H161.996V112.762H155.53V115.997H158.764ZM195.445 509.728V544.247H91.9742V509.728H120.716H126.465V503.975V446.444V440.69H120.716H109.219V429.184V423.431H103.471H91.9742V411.925V406.172H86.2258H40.2387V394.665V388.912H45.9871H51.7355H57.4839V383.159V308.368V302.615H51.7355H28.7419H22.9936V296.862V285.356H51.7355H57.4839V279.603V256.59V250.837H51.7355H40.2387V233.577H247.181V250.837H235.684H229.936V256.59V279.603V285.356H235.684H264.426V296.862V302.615H258.677H235.684H229.936V308.368V383.159V388.912H235.684H241.432H247.181V394.665V406.172H201.194H195.445V411.925V423.431H183.948H178.2V429.184V440.69H166.703H160.955V446.444V503.975V509.728H166.703H195.445ZM264.426 371.653V365.9V308.368V302.615H270.174H281.671V371.653H270.174H264.426ZM264.426 371.653H258.677H247.181V383.159V388.912H252.929H264.426V377.406V371.653ZM22.9936 371.653H17.2452H5.74839V302.615H17.2452H22.9936V308.368V365.9V371.653ZM22.9936 371.653V377.406V388.912H34.4903H40.2387V383.159V371.653H28.7419H22.9936ZM51.7355 383.159V308.368H28.7419V365.9H40.2387H45.9871V371.653V383.159H51.7355ZM241.432 383.159H235.684V308.368H258.677V365.9H247.181H241.432V371.653V383.159Z" fill="#2DAF58"/>
</svg>
