<svg width="181" height="100" viewBox="0 0 181 100" fill="none" xmlns="http://www.w3.org/2000/svg">
<g clip-path="url(#clip0_370:1166)">
<path fill-rule="evenodd" clip-rule="evenodd" d="M144.844 53.1214H136.326L134.708 59.6243C133.842 63.1503 135.286 64.6532 138.52 64.6532V78.1792H109.557V64.5954H111.983C114.957 64.5954 116.574 63.3237 117.527 59.0174L127.056 20C128.24 15.5492 126.998 13.7284 123.418 13.7284H119.808V0.173462H144.844H169.88V13.7284H166.27C162.69 13.7284 161.477 15.5492 162.632 20L172.19 58.9885C173.143 63.3237 174.76 64.5665 177.734 64.5665H180.16V78.1503H151.168V64.6243C154.402 64.6243 155.846 63.1214 154.98 59.5954L153.363 53.0925H144.844V53.1214ZM144.844 18.0636L140.137 37.6012H144.844H149.551L144.844 18.0636Z" fill="#040404"/>
<path fill-rule="evenodd" clip-rule="evenodd" d="M0.0864258 0.173584H37.9145V13.6418H31.8216C29.7136 13.6418 28.0099 15.3759 28.0099 17.4568V60.7227C28.0099 62.8325 29.7425 64.5377 31.8216 64.5377H37.9145V78.006H0.0864258V64.5377H6.17934C8.28732 64.5377 9.99103 62.8036 9.99103 60.7227V17.4857C9.99103 15.3759 8.25844 13.6707 6.17934 13.6707H0.0864258V0.173584Z" fill="#040404"/>
<path fill-rule="evenodd" clip-rule="evenodd" d="M98.9592 38.6416C103.117 34.5665 105.687 28.9018 105.687 22.6012C105.687 10.4046 95.9272 0.462452 83.7991 0.173435V0.144531H64.6829H44.585V13.6127H50.1004C52.2083 13.6127 53.912 15.3468 53.912 17.4278V60.6937C53.912 62.8035 52.1795 64.5087 50.1004 64.5087H44.585V64.5376C44.585 69.0463 44.585 73.5549 44.585 78.0925H64.6829H83.7991C84.0012 78.0925 84.2034 78.0925 84.4055 78.0925C96.7646 78.0925 106.814 68.0636 106.814 55.6648C106.814 48.8729 103.753 42.7746 98.9592 38.6416ZM71.9309 16.4451H81.8932C85.7049 16.4451 88.7947 19.5376 88.7947 23.3526C88.7947 27.1677 85.7049 30.2601 81.8932 30.2601H71.9309V16.4451ZM83.1638 61.5896H71.9309V47.8035H83.1638C86.9755 47.8035 90.0653 50.896 90.0653 54.711C90.0653 58.526 86.9755 61.5896 83.1638 61.5896Z" fill="#040404"/>
<path fill-rule="evenodd" clip-rule="evenodd" d="M16.1706 90.4335V99.5953H12.8787L12.5899 97.9479C11.2327 99.3063 9.67339 100 7.91193 100C5.60182 100 3.72485 99.2196 2.28103 97.6589C0.837212 96.0982 0.0864258 94.104 0.0864258 91.6474C0.0864258 90.3179 0.28856 89.1329 0.69283 88.0058C1.0971 86.9075 1.64575 85.9537 2.39654 85.1445C3.11845 84.3352 3.98474 83.7283 4.96654 83.2948C5.94833 82.8613 7.04564 82.6589 8.22957 82.6589C9.64451 82.6589 10.8573 82.8901 11.9257 83.3526C12.9653 83.815 13.8316 84.5086 14.4669 85.4046C15.1021 86.3006 15.5353 87.3988 15.7374 88.6416H10.9728C10.5397 87.341 9.64451 86.7052 8.25844 86.7052C7.30552 86.7052 6.55474 87.1098 5.97721 87.8901C5.39968 88.6705 5.11092 89.711 5.11092 91.0115C5.11092 92.5433 5.42856 93.6994 6.03496 94.5375C6.64137 95.3757 7.50766 95.7803 8.63384 95.7803C10.222 95.7803 11.1461 95.1734 11.4637 93.9884H9.32687V90.3757H16.1706V90.4335ZM47.1549 93.9017V99.5953H42.1882V83.0636H50.1003C52.3816 83.0636 54.143 83.4682 55.2981 84.3352C56.4531 85.1734 57.0595 86.3873 57.0595 87.9769C57.0595 89.9422 56.1644 91.2716 54.3163 92.0231C55.1826 92.341 55.7601 92.7745 56.1066 93.3526C56.4243 93.9017 56.6264 94.5953 56.6841 95.4046C56.7419 96.2138 56.7996 96.9942 56.8574 97.7456C56.9152 98.4971 57.0595 99.104 57.3194 99.5953H52.2372C52.1217 99.1907 52.0062 98.4104 51.9484 97.2832C51.8907 96.156 51.6597 95.3179 51.2843 94.7399C50.9089 94.1907 50.2158 93.9017 49.2052 93.9017H47.1549ZM47.1549 87.1098V90.3179H49.9271C51.3131 90.3179 51.9773 89.7688 51.9773 88.6416C51.9773 88.0636 51.8329 87.6589 51.5153 87.4277C51.1976 87.2254 50.6779 87.1098 49.8982 87.1098H47.1549ZM81.9799 91.3005C81.9799 90 82.182 88.815 82.5863 87.7745C82.9905 86.7052 83.5392 85.8092 84.2611 85.0578C84.983 84.3063 85.8493 83.7283 86.8888 83.3237C87.9284 82.919 89.0835 82.7167 90.3251 82.7167C91.6246 82.7167 92.7796 82.919 93.8192 83.3237C94.8587 83.7283 95.725 84.3063 96.4758 85.0578C97.1977 85.8092 97.7753 86.7052 98.1795 87.7745C98.5838 88.8439 98.7859 90.0289 98.7859 91.3005C98.7859 93.0058 98.4394 94.5086 97.7464 95.8381C97.0533 97.1676 96.0715 98.1792 94.7721 98.9017C93.4727 99.6243 92 100 90.354 100C87.8706 100 85.8493 99.1907 84.3189 97.6011C82.7307 96.0115 81.9799 93.9017 81.9799 91.3005ZM86.9466 91.3005C86.9466 92.6878 87.2642 93.7861 87.8706 94.6242C88.4771 95.4624 89.2856 95.867 90.2963 95.867C91.3358 95.867 92.1444 95.4624 92.7508 94.6532C93.3572 93.8439 93.6459 92.7167 93.6459 91.3295C93.6459 89.9422 93.3572 88.8439 92.7508 88.0347C92.1444 87.1965 91.3358 86.7919 90.2963 86.7919C89.3145 86.7919 88.5059 87.1965 87.8706 88.0347C87.2642 88.8439 86.9466 89.9422 86.9466 91.3005ZM139.328 83.0636V92.948C139.328 97.6589 136.816 100 131.763 100C126.709 100 124.197 97.6589 124.197 92.948V83.0636H129.135V93.1214C129.135 94.9422 130.001 95.867 131.763 95.867C133.495 95.867 134.391 94.9422 134.391 93.1214V83.0636H139.328ZM170.457 94.5375V99.5953H165.49V83.0636H173.287C174.413 83.0636 175.251 83.1503 175.857 83.2948C176.435 83.4393 177.012 83.6994 177.59 84.0751C178.283 84.5664 178.86 85.2312 179.293 86.0982C179.726 86.9653 179.957 87.8901 179.957 88.8728C179.957 90.6358 179.409 92.0231 178.311 93.0347C177.214 94.0462 175.684 94.5375 173.749 94.5375H170.457ZM170.457 87.1098V90.6936H172.94C173.605 90.6936 174.124 90.5491 174.471 90.2023C174.817 89.8844 174.991 89.4219 174.991 88.8439C174.991 88.237 174.817 87.8034 174.5 87.5433C174.182 87.2543 173.662 87.1387 172.969 87.1387H170.457V87.1098Z" fill="#040404"/>
</g>
<defs>
<clipPath id="clip0_370:1166">
<rect width="180.189" height="100" fill="white"/>
</clipPath>
</defs>
</svg>
