<svg width="987" height="1125" viewBox="0 0 987 1125" fill="none" xmlns="http://www.w3.org/2000/svg">
<path fill-rule="evenodd" clip-rule="evenodd" d="M6.52 0V17.24H0.76V23H18.04V17.24H12.28V0H6.52ZM98.77 0V17.24H93.01V23H110.29V17.24H104.53V0H98.77ZM202.557 0V17.24H208.317V23H225.597V17.24H231.357V0H225.597V17.24H208.317V0H202.557ZM312.051 0V17.24H306.291V23H323.571V17.24H317.811V0H312.051ZM329.354 0V17.24H335.114V23H352.394V17.24H358.154V0H352.394V17.24H335.114V0H329.354ZM404.254 0V17.24H398.494V23H415.774V17.24H410.014V0H404.254ZM444.614 0V17.24H438.854V23H456.134V17.24H450.374V0H444.614ZM461.916 0V17.24H467.676V23H484.956V17.24H490.716V0H484.956V17.24H467.676V0H461.916ZM738.619 0V17.24H744.379V23H761.659V17.24H767.419V0H761.659V17.24H744.379V0H738.619ZM41.1138 75.24H35.3538V81H52.6338V75.24H46.8737V46.44H41.1138V52.2H35.3538V57.96H41.1138V75.24ZM81.4563 46.44H64.1763V52.2H58.4163V75.24H64.1763V81H81.4563V75.24H87.2162V52.2H81.4563V46.44ZM81.4563 52.2V75.24H64.1763V52.2H81.4563ZM98.7231 75.24H92.9631V81H110.243V75.24H104.483V46.44H98.7231V52.2H92.9631V57.96H98.7231V75.24ZM139.083 75.24H133.322V81H150.603V75.24H144.842V46.44H139.083V52.2H133.322V57.96H139.083V75.24ZM715.628 46.44H698.348V52.2H692.588V75.24H698.348V81H715.628V75.24H721.388V52.2H715.628V46.44ZM715.628 52.2V75.24H698.348V52.2H715.628ZM144.895 133.24H139.135V139H156.415V133.24H150.655V104.44H144.895V110.2H139.135V115.96H144.895V133.24ZM237.128 104.44H219.848V110.2H214.088V133.24H219.848V139H237.128V133.24H242.888V110.2H237.128V104.44ZM237.128 110.2V133.24H219.848V110.2H237.128ZM288.989 133.24H283.229V139H300.509V133.24H294.749V104.44H288.989V110.2H283.229V115.96H288.989V133.24ZM329.331 104.44H312.051V110.2H306.291V133.24H312.051V139H329.331V133.24H335.091V110.2H329.331V104.44ZM329.331 110.2V133.24H312.051V110.2H329.331ZM502.27 133.24H496.51V139H513.79V133.24H508.03V104.44H502.27V110.2H496.51V115.96H502.27V133.24ZM559.909 104.44H542.629V110.2H536.869V133.24H542.629V139H559.909V133.24H565.669V110.2H559.909V104.44ZM559.909 110.2V133.24H542.629V110.2H559.909ZM214.066 162.44H196.786V168.2H191.026V191.24H196.786V197H214.066V191.24H219.826V168.2H214.066V162.44ZM214.066 168.2V191.24H196.786V168.2H214.066ZM559.956 162.44H542.676V168.2H536.916V191.24H542.676V197H559.956V191.24H565.716V168.2H559.956V162.44ZM559.956 168.2V191.24H542.676V168.2H559.956ZM663.691 162.44H646.411V168.2H640.651V191.24H646.411V197H663.691V191.24H669.451V168.2H663.691V162.44ZM663.691 168.2V191.24H646.411V168.2H663.691ZM802.036 191.24H796.276V197H813.556V191.24H807.796V162.44H802.036V168.2H796.276V173.96H802.036V191.24ZM144.895 249.24H139.135V255H156.415V249.24H150.655V220.44H144.895V226.2H139.135V231.96H144.895V249.24ZM462.004 249.24H456.244V255H473.524V249.24H467.764V220.44H462.004V226.2H456.244V231.96H462.004V249.24ZM640.739 249.24H634.979V255H652.259V249.24H646.499V220.44H640.739V226.2H634.979V231.96H640.739V249.24ZM663.801 249.24H658.041V255H675.321V249.24H669.561V220.44H663.801V226.2H658.041V231.96H663.801V249.24ZM23.8169 307.24H18.0569V313H35.3369V307.24H29.5769V278.44H23.8169V284.2H18.0569V289.96H23.8169V307.24ZM289.036 307.24H283.276V313H300.556V307.24H294.796V278.44H289.036V284.2H283.276V289.96H289.036V307.24ZM485.067 307.24H479.307V313H496.587V307.24H490.827V278.44H485.067V284.2H479.307V289.96H485.067V307.24ZM611.911 307.24H606.151V313H623.431V307.24H617.671V278.44H611.911V284.2H606.151V289.96H611.911V307.24ZM704.144 278.44H686.864V284.2H681.104V307.24H686.864V313H704.144V307.24H709.904V284.2H704.144V278.44ZM704.144 284.2V307.24H686.864V284.2H704.144ZM756.004 307.24H750.244V313H767.524V307.24H761.764V278.44H756.004V284.2H750.244V289.96H756.004V307.24ZM882.831 278.44H865.551V284.2H859.791V307.24H865.551V313H882.831V307.24H888.591V284.2H882.831V278.44ZM882.831 284.2V307.24H865.551V284.2H882.831ZM23.8169 365.24H18.0569V371H35.3369V365.24H29.5769V336.44H23.8169V342.2H18.0569V347.96H23.8169V365.24ZM323.612 336.44H306.332V342.2H300.573V365.24H306.332V371H323.612V365.24H329.372V342.2H323.612V336.44ZM323.612 342.2V365.24H306.332V342.2H323.612ZM410.067 365.24H404.307V371H421.587V365.24H415.827V336.44H410.067V342.2H404.307V347.96H410.067V365.24ZM744.456 336.44H727.176V342.2H721.416V365.24H727.176V371H744.456V365.24H750.216V342.2H744.456V336.44ZM744.456 342.2V365.24H727.176V342.2H744.456ZM848.208 365.24H842.448V371H859.727V365.24H853.968V336.44H848.208V342.2H842.448V347.96H848.208V365.24ZM214.066 394.44H196.786V400.2H191.026V423.24H196.786V429H214.066V423.24H219.826V400.2H214.066V394.44ZM214.066 400.2V423.24H196.786V400.2H214.066ZM387.004 423.24H381.244V429H398.524V423.24H392.764V394.44H387.004V400.2H381.244V405.96H387.004V423.24ZM600.316 394.44H583.036V400.2H577.276V423.24H583.036V429H600.316V423.24H606.076V400.2H600.316V394.44ZM600.316 400.2V423.24H583.036V400.2H600.316ZM686.753 394.44H669.473V400.2H663.713V423.24H669.473V429H686.753V423.24H692.513V400.2H686.753V394.44ZM686.753 400.2V423.24H669.473V400.2H686.753ZM721.3 394.44H704.02V400.2H698.26V423.24H704.02V429H721.3V423.24H727.06V400.2H721.3V394.44ZM721.3 400.2V423.24H704.02V400.2H721.3ZM773.161 423.24H767.401V429H784.681V423.24H778.921V394.44H773.161V400.2H767.401V405.96H773.161V423.24ZM796.223 423.24H790.463V429H807.743V423.24H801.983V394.44H796.223V400.2H790.463V405.96H796.223V423.24ZM819.286 423.24H813.526V429H830.806V423.24H825.046V394.44H819.286V400.2H813.526V405.96H819.286V423.24ZM876.942 423.24H871.182V429H888.462V423.24H882.702V394.44H876.942V400.2H871.182V405.96H876.942V423.24ZM58.4106 481.24H52.6506V487H69.9306V481.24H64.1706V452.44H58.4106V458.2H52.6506V463.96H58.4106V481.24ZM219.831 452.44H202.551V458.2H196.791V481.24H202.551V487H219.831V481.24H225.591V458.2H219.831V452.44ZM219.831 458.2V481.24H202.551V458.2H219.831ZM358.176 481.24H352.416V487H369.696V481.24H363.936V452.44H358.176V458.2H352.416V463.96H358.176V481.24ZM450.426 481.24H444.666V487H461.946V481.24H456.186V452.44H450.426V458.2H444.666V463.96H450.426V481.24ZM577.253 452.44H559.973V458.2H554.213V481.24H559.973V487H577.253V481.24H583.013V458.2H577.253V452.44ZM577.253 458.2V481.24H559.973V458.2H577.253ZM663.708 481.24H657.948V487H675.227V481.24H669.468V452.44H663.708V458.2H657.948V463.96H663.708V481.24ZM755.958 481.24H750.198V487H767.477V481.24H761.718V452.44H755.958V458.2H750.198V463.96H755.958V481.24ZM813.597 452.44H796.317V458.2H790.557V481.24H796.317V487H813.597V481.24H819.357V458.2H813.597V452.44ZM813.597 458.2V481.24H796.317V458.2H813.597ZM830.864 481.24H825.104V487H842.384V481.24H836.624V452.44H830.864V458.2H825.104V463.96H830.864V481.24ZM871.206 452.44H853.926V458.2H848.166V481.24H853.926V487H871.206V481.24H876.966V458.2H871.206V452.44ZM871.206 458.2V481.24H853.926V458.2H871.206ZM905.753 452.44H888.473V458.2H882.713V481.24H888.473V487H905.753V481.24H911.513V458.2H905.753V452.44ZM905.753 458.2V481.24H888.473V458.2H905.753ZM974.911 481.24H969.151V487H986.431V481.24H980.671V452.44H974.911V458.2H969.151V463.96H974.911V481.24ZM300.55 510.44H283.27V516.2H277.51V539.24H283.27V545H300.55V539.24H306.31V516.2H300.55V510.44ZM300.55 516.2V539.24H283.27V516.2H300.55ZM456.175 510.44H438.895V516.2H433.135V539.24H438.895V545H456.175V539.24H461.935V516.2H456.175V510.44ZM456.175 516.2V539.24H438.895V516.2H456.175ZM629.097 510.44H611.817V516.2H606.057V539.24H611.817V545H629.097V539.24H634.857V516.2H629.097V510.44ZM629.097 516.2V539.24H611.817V516.2H629.097ZM663.661 539.24H657.901V545H675.181V539.24H669.421V510.44H663.661V516.2H657.901V521.96H663.661V539.24ZM704.003 510.44H686.723V516.2H680.963V539.24H686.723V545H704.003V539.24H709.763V516.2H704.003V510.44ZM704.003 516.2V539.24H686.723V516.2H704.003ZM738.567 539.24H732.807V545H750.087V539.24H744.327V510.44H738.567V516.2H732.807V521.96H738.567V539.24ZM93.0044 597.24H87.2444V603H104.524V597.24H98.7644V568.44H93.0044V574.2H87.2444V579.96H93.0044V597.24ZM185.238 568.44H167.958V574.2H162.197V597.24H167.958V603H185.238V597.24H190.997V574.2H185.238V568.44ZM185.238 574.2V597.24H167.958V574.2H185.238ZM219.801 597.24H214.041V603H231.321V597.24H225.561V568.44H219.801V574.2H214.041V579.96H219.801V597.24ZM312.034 568.44H294.754V574.2H288.994V597.24H294.754V603H312.034V597.24H317.794V574.2H312.034V568.44ZM312.034 574.2V597.24H294.754V574.2H312.034ZM450.379 597.24H444.619V603H461.899V597.24H456.139V568.44H450.379V574.2H444.619V579.96H450.379V597.24ZM577.223 597.24H571.463V603H588.743V597.24H582.983V568.44H577.223V574.2H571.463V579.96H577.223V597.24ZM617.583 597.24H611.823V603H629.102V597.24H623.343V568.44H617.583V574.2H611.823V579.96H617.583V597.24ZM796.3 568.44H779.02V574.2H773.26V597.24H779.02V603H796.3V597.24H802.06V574.2H796.3V568.44ZM796.3 574.2V597.24H779.02V574.2H796.3ZM848.144 568.44H830.864V574.2H825.104V597.24H830.864V603H848.144V597.24H853.904V574.2H848.144V568.44ZM848.144 574.2V597.24H830.864V574.2H848.144ZM162.175 626.44H144.895V632.2H139.135V655.24H144.895V661H162.175V655.24H167.935V632.2H162.175V626.44ZM162.175 632.2V655.24H144.895V632.2H162.175ZM629.161 655.24H623.401V661H640.681V655.24H634.921V626.44H629.161V632.2H623.401V637.96H629.161V655.24ZM807.878 626.44H790.598V632.2H784.838V655.24H790.598V661H807.878V655.24H813.638V632.2H807.878V626.44ZM807.878 632.2V655.24H790.598V632.2H807.878ZM6.52 713.24H0.76V719H18.04V713.24H12.28V684.44H6.52V690.2H0.76V695.96H6.52V713.24ZM46.8625 684.44H29.5825V690.2H23.8225V713.24H29.5825V719H46.8625V713.24H52.6225V690.2H46.8625V684.44ZM46.8625 690.2V713.24H29.5825V690.2H46.8625ZM219.801 713.24H214.041V719H231.321V713.24H225.561V684.44H219.801V690.2H214.041V695.96H219.801V713.24ZM294.737 684.44H277.457V690.2H271.698V713.24H277.457V719H294.737V713.24H300.497V690.2H294.737V684.44ZM294.737 690.2V713.24H277.457V690.2H294.737ZM675.239 713.24H669.479V719H686.759V713.24H680.999V684.44H675.239V690.2H669.479V695.96H675.239V713.24ZM784.786 713.24H779.026V719H796.306V713.24H790.546V684.44H784.786V690.2H779.026V695.96H784.786V713.24ZM911.629 713.24H905.869V719H923.149V713.24H917.389V684.44H911.629V690.2H905.869V695.96H911.629V713.24ZM283.253 742.44H265.973V748.2H260.213V771.24H265.973V777H283.253V771.24H289.013V748.2H283.253V742.44ZM283.253 748.2V771.24H265.973V748.2H283.253ZM300.52 771.24H294.76V777H312.04V771.24H306.28V742.44H300.52V748.2H294.76V753.96H300.52V771.24ZM652.206 742.44H634.926V748.2H629.166V771.24H634.926V777H652.206V771.24H657.966V748.2H652.206V742.44ZM652.206 748.2V771.24H634.926V748.2H652.206ZM686.77 771.24H681.01V777H698.29V771.24H692.53V742.44H686.77V748.2H681.01V753.96H686.77V771.24ZM865.504 771.24H859.744V777H877.024V771.24H871.264V742.44H865.504V748.2H859.744V753.96H865.504V771.24ZM923.144 742.44H905.864V748.2H900.104V771.24H905.864V777H923.144V771.24H928.904V748.2H923.144V742.44ZM923.144 748.2V771.24H905.864V748.2H923.144ZM231.379 829.24H225.619V835H242.899V829.24H237.139V800.44H231.379V806.2H225.619V811.96H231.379V829.24ZM306.316 800.44H289.036V806.2H283.276V829.24H289.036V835H306.316V829.24H312.076V806.2H306.316V800.44ZM306.316 806.2V829.24H289.036V806.2H306.316ZM583.036 829.24H577.276V835H594.556V829.24H588.796V800.44H583.036V806.2H577.276V811.96H583.036V829.24ZM93.0044 887.24H87.2444V893H104.524V887.24H98.7644V858.44H93.0044V864.2H87.2444V869.96H93.0044V887.24ZM150.661 887.24H144.901V893H162.181V887.24H156.421V858.44H150.661V864.2H144.901V869.96H150.661V887.24ZM173.723 887.24H167.963V893H185.243V887.24H179.483V858.44H173.723V864.2H167.963V869.96H173.723V887.24ZM265.973 887.24H260.213V893H277.493V887.24H271.733V858.44H265.973V864.2H260.213V869.96H265.973V887.24ZM323.629 887.24H317.869V893H335.149V887.24H329.389V858.44H323.629V864.2H317.869V869.96H323.629V887.24ZM381.269 858.44H363.989V864.2H358.229V887.24H363.989V893H381.269V887.24H387.029V864.2H381.269V858.44ZM381.269 864.2V887.24H363.989V864.2H381.269ZM433.129 887.24H427.369V893H444.649V887.24H438.889V858.44H433.129V864.2H427.369V869.96H433.129V887.24ZM525.379 887.24H519.619V893H536.899V887.24H531.139V858.44H525.379V864.2H519.619V869.96H525.379V887.24ZM721.394 858.44H704.114V864.2H698.354V887.24H704.114V893H721.394V887.24H727.154V864.2H721.394V858.44ZM721.394 864.2V887.24H704.114V864.2H721.394ZM738.661 887.24H732.901V893H750.181V887.24H744.421V858.44H738.661V864.2H732.901V869.96H738.661V887.24ZM162.192 945.24H156.432V951H173.712V945.24H167.952V916.44H162.192V922.2H156.432V927.96H162.192V945.24ZM219.848 945.24H214.088V951H231.368V945.24H225.608V916.44H219.848V922.2H214.088V927.96H219.848V945.24ZM329.378 916.44H312.098V922.2H306.338V945.24H312.098V951H329.378V945.24H335.138V922.2H329.378V916.44ZM329.378 922.2V945.24H312.098V922.2H329.378ZM363.925 916.44H346.645V922.2H340.885V945.24H346.645V951H363.925V945.24H369.685V922.2H363.925V916.44ZM363.925 922.2V945.24H346.645V922.2H363.925ZM415.786 945.24H410.026V951H427.306V945.24H421.546V916.44H415.786V922.2H410.026V927.96H415.786V945.24ZM715.598 945.24H709.838V951H727.118V945.24H721.358V916.44H715.598V922.2H709.838V927.96H715.598V945.24ZM755.941 916.44H738.661V922.2H732.901V945.24H738.661V951H755.941V945.24H761.701V922.2H755.941V916.44ZM755.941 922.2V945.24H738.661V922.2H755.941ZM894.286 945.24H888.526V951H905.806V945.24H900.046V916.44H894.286V922.2H888.526V927.96H894.286V945.24ZM214.066 974.44H196.786V980.2H191.026V1003.24H196.786V1009H214.066V1003.24H219.826V980.2H214.066V974.44ZM214.066 980.2V1003.24H196.786V980.2H214.066ZM231.333 1003.24H225.572V1009H242.853V1003.24H237.092V974.44H231.333V980.2H225.572V985.96H231.333V1003.24ZM583.036 1003.24H577.276V1009H594.556V1003.24H588.796V974.44H583.036V980.2H577.276V985.96H583.036V1003.24ZM623.378 974.44H606.098V980.2H600.338V1003.24H606.098V1009H623.378V1003.24H629.138V980.2H623.378V974.44ZM623.378 980.2V1003.24H606.098V980.2H623.378ZM744.426 1003.24H738.666V1009H755.946V1003.24H750.186V974.44H744.426V980.2H738.666V985.96H744.426V1003.24ZM853.973 1003.24H848.213V1009H865.493V1003.24H859.733V974.44H853.973V980.2H848.213V985.96H853.973V1003.24ZM127.581 1032.44H110.301V1038.2H104.541V1061.24H110.301V1067H127.581V1061.24H133.341V1038.2H127.581V1032.44ZM127.581 1038.2V1061.24H110.301V1038.2H127.581ZM369.707 1061.24H363.948V1067H381.228V1061.24H375.467V1032.44H369.707V1038.2H363.948V1043.96H369.707V1061.24ZM548.425 1032.44H531.145V1038.2H525.385V1061.24H531.145V1067H548.425V1061.24H554.185V1038.2H548.425V1032.44ZM548.425 1038.2V1061.24H531.145V1038.2H548.425ZM634.862 1032.44H617.583V1038.2H611.823V1061.24H617.583V1067H634.862V1061.24H640.622V1038.2H634.862V1032.44ZM634.862 1038.2V1061.24H617.583V1038.2H634.862ZM807.784 1032.44H790.504V1038.2H784.744V1061.24H790.504V1067H807.784V1061.24H813.544V1038.2H807.784V1032.44ZM807.784 1038.2V1061.24H790.504V1038.2H807.784ZM928.816 1032.44H911.536V1038.2H905.776V1061.24H911.536V1067H928.816V1061.24H934.576V1038.2H928.816V1032.44ZM928.816 1038.2V1061.24H911.536V1038.2H928.816ZM23.8 1090.44H6.52V1096.2H0.76V1119.24H6.52V1125H23.8V1119.24H29.56V1096.2H23.8V1090.44ZM23.8 1096.2V1119.24H6.52V1096.2H23.8ZM58.3469 1090.44H41.0669V1096.2H35.3069V1119.24H41.0669V1125H58.3469V1119.24H64.1069V1096.2H58.3469V1090.44ZM58.3469 1096.2V1119.24H41.0669V1096.2H58.3469ZM162.098 1119.24H156.338V1125H173.618V1119.24H167.858V1090.44H162.098V1096.2H156.338V1101.96H162.098V1119.24ZM375.409 1090.44H358.129V1096.2H352.369V1119.24H358.129V1125H375.409V1119.24H381.169V1096.2H375.409V1090.44ZM375.409 1096.2V1119.24H358.129V1096.2H375.409ZM531.034 1090.44H513.754V1096.2H507.994V1119.24H513.754V1125H531.034V1119.24H536.794V1096.2H531.034V1090.44ZM531.034 1096.2V1119.24H513.754V1096.2H531.034ZM686.676 1119.24H680.916V1125H698.196V1119.24H692.436V1090.44H686.676V1096.2H680.916V1101.96H686.676V1119.24ZM761.629 1119.24H755.869V1125H773.149V1119.24H767.389V1090.44H761.629V1096.2H755.869V1101.96H761.629V1119.24ZM888.473 1119.24H882.713V1125H899.993V1119.24H894.233V1090.44H888.473V1096.2H882.713V1101.96H888.473V1119.24ZM963.409 1090.44H946.129V1096.2H940.369V1119.24H946.129V1125H963.409V1119.24H969.169V1096.2H963.409V1090.44ZM963.409 1096.2V1119.24H946.129V1096.2H963.409Z" fill="#2DAF58"/>
</svg>
