<svg width="495" height="1019" viewBox="0 0 495 1019" fill="none" xmlns="http://www.w3.org/2000/svg">
<path d="M0.76 29.24H6.52V11.96H0.76V6.2H6.52V0.439999H12.28V29.24H18.04V35H0.76V29.24ZM93.01 29.24H98.77V11.96H93.01V6.2H98.77V0.439999H104.53V29.24H110.29V35H93.01V29.24ZM208.317 0.439999H225.597V6.2H208.317V0.439999ZM202.557 6.2H208.317V29.24H202.557V6.2ZM225.597 6.2H231.357V29.24H225.597V6.2ZM208.317 29.24H225.597V35H208.317V29.24ZM306.291 29.24H312.051V11.96H306.291V6.2H312.051V0.439999H317.811V29.24H323.571V35H306.291V29.24ZM335.114 0.439999H352.394V6.2H335.114V0.439999ZM329.354 6.2H335.114V29.24H329.354V6.2ZM352.394 6.2H358.154V29.24H352.394V6.2ZM335.114 29.24H352.394V35H335.114V29.24ZM398.494 29.24H404.254V11.96H398.494V6.2H404.254V0.439999H410.014V29.24H415.774V35H398.494V29.24ZM438.854 29.24H444.614V11.96H438.854V6.2H444.614V0.439999H450.374V29.24H456.134V35H438.854V29.24ZM467.676 0.439999H484.956V6.2H467.676V0.439999ZM461.916 6.2H467.676V29.24H461.916V6.2ZM484.956 6.2H490.716V29.24H484.956V6.2ZM467.676 29.24H484.956V35H467.676V29.24ZM744.379 0.439999H761.659V6.2H744.379V0.439999ZM738.619 6.2H744.379V29.24H738.619V6.2ZM761.659 6.2H767.419V29.24H761.659V6.2ZM744.379 29.24H761.659V35H744.379V29.24ZM35.3538 87.24H41.1138V69.96H35.3538V64.2H41.1138V58.44H46.8738V87.24H52.6338V93H35.3538V87.24ZM64.1763 58.44H81.4563V64.2H64.1763V58.44ZM58.4163 64.2H64.1763V87.24H58.4163V64.2ZM81.4563 64.2H87.2163V87.24H81.4563V64.2ZM64.1763 87.24H81.4563V93H64.1763V87.24ZM92.9631 87.24H98.7231V69.96H92.9631V64.2H98.7231V58.44H104.483V87.24H110.243V93H92.9631V87.24ZM133.323 87.24H139.083V69.96H133.323V64.2H139.083V58.44H144.843V87.24H150.603V93H133.323V87.24ZM698.348 58.44H715.628V64.2H698.348V58.44ZM692.588 64.2H698.348V87.24H692.588V64.2ZM715.628 64.2H721.388V87.24H715.628V64.2ZM698.348 87.24H715.628V93H698.348V87.24ZM139.135 145.24H144.895V127.96H139.135V122.2H144.895V116.44H150.655V145.24H156.415V151H139.135V145.24ZM219.848 116.44H237.128V122.2H219.848V116.44ZM214.088 122.2H219.848V145.24H214.088V122.2ZM237.128 122.2H242.888V145.24H237.128V122.2ZM219.848 145.24H237.128V151H219.848V145.24ZM283.229 145.24H288.989V127.96H283.229V122.2H288.989V116.44H294.749V145.24H300.509V151H283.229V145.24ZM312.051 116.44H329.331V122.2H312.051V116.44ZM306.291 122.2H312.051V145.24H306.291V122.2ZM329.331 122.2H335.091V145.24H329.331V122.2ZM312.051 145.24H329.331V151H312.051V145.24ZM496.51 145.24H502.27V127.96H496.51V122.2H502.27V116.44H508.03V145.24H513.79V151H496.51V145.24ZM542.629 116.44H559.909V122.2H542.629V116.44ZM536.869 122.2H542.629V145.24H536.869V122.2ZM559.909 122.2H565.669V145.24H559.909V122.2ZM542.629 145.24H559.909V151H542.629V145.24ZM196.786 174.44H214.066V180.2H196.786V174.44ZM191.026 180.2H196.786V203.24H191.026V180.2ZM214.066 180.2H219.826V203.24H214.066V180.2ZM196.786 203.24H214.066V209H196.786V203.24ZM542.676 174.44H559.956V180.2H542.676V174.44ZM536.916 180.2H542.676V203.24H536.916V180.2ZM559.956 180.2H565.716V203.24H559.956V180.2ZM542.676 203.24H559.956V209H542.676V203.24ZM646.411 174.44H663.691V180.2H646.411V174.44ZM640.651 180.2H646.411V203.24H640.651V180.2ZM663.691 180.2H669.451V203.24H663.691V180.2ZM646.411 203.24H663.691V209H646.411V203.24ZM796.276 203.24H802.036V185.96H796.276V180.2H802.036V174.44H807.796V203.24H813.556V209H796.276V203.24ZM139.135 261.24H144.895V243.96H139.135V238.2H144.895V232.44H150.655V261.24H156.415V267H139.135V261.24ZM456.244 261.24H462.004V243.96H456.244V238.2H462.004V232.44H467.764V261.24H473.524V267H456.244V261.24ZM634.979 261.24H640.739V243.96H634.979V238.2H640.739V232.44H646.499V261.24H652.259V267H634.979V261.24ZM658.041 261.24H663.801V243.96H658.041V238.2H663.801V232.44H669.561V261.24H675.321V267H658.041V261.24ZM18.0569 319.24H23.8169V301.96H18.0569V296.2H23.8169V290.44H29.5769V319.24H35.3369V325H18.0569V319.24ZM283.276 319.24H289.036V301.96H283.276V296.2H289.036V290.44H294.796V319.24H300.556V325H283.276V319.24ZM479.307 319.24H485.067V301.96H479.307V296.2H485.067V290.44H490.827V319.24H496.587V325H479.307V319.24ZM606.151 319.24H611.911V301.96H606.151V296.2H611.911V290.44H617.671V319.24H623.431V325H606.151V319.24ZM686.864 290.44H704.144V296.2H686.864V290.44ZM681.104 296.2H686.864V319.24H681.104V296.2ZM704.144 296.2H709.904V319.24H704.144V296.2ZM686.864 319.24H704.144V325H686.864V319.24ZM750.244 319.24H756.004V301.96H750.244V296.2H756.004V290.44H761.764V319.24H767.524V325H750.244V319.24ZM865.551 290.44H882.831V296.2H865.551V290.44ZM859.791 296.2H865.551V319.24H859.791V296.2ZM882.831 296.2H888.591V319.24H882.831V296.2ZM865.551 319.24H882.831V325H865.551V319.24ZM18.0569 377.24H23.8169V359.96H18.0569V354.2H23.8169V348.44H29.5769V377.24H35.3369V383H18.0569V377.24ZM306.333 348.44H323.613V354.2H306.333V348.44ZM300.573 354.2H306.333V377.24H300.573V354.2ZM323.613 354.2H329.373V377.24H323.613V354.2ZM306.333 377.24H323.613V383H306.333V377.24ZM404.307 377.24H410.067V359.96H404.307V354.2H410.067V348.44H415.827V377.24H421.587V383H404.307V377.24ZM727.176 348.44H744.456V354.2H727.176V348.44ZM721.416 354.2H727.176V377.24H721.416V354.2ZM744.456 354.2H750.216V377.24H744.456V354.2ZM727.176 377.24H744.456V383H727.176V377.24ZM842.448 377.24H848.208V359.96H842.448V354.2H848.208V348.44H853.968V377.24H859.728V383H842.448V377.24ZM196.786 406.44H214.066V412.2H196.786V406.44ZM191.026 412.2H196.786V435.24H191.026V412.2ZM214.066 412.2H219.826V435.24H214.066V412.2ZM196.786 435.24H214.066V441H196.786V435.24ZM381.244 435.24H387.004V417.96H381.244V412.2H387.004V406.44H392.764V435.24H398.524V441H381.244V435.24ZM583.036 406.44H600.316V412.2H583.036V406.44ZM577.276 412.2H583.036V435.24H577.276V412.2ZM600.316 412.2H606.076V435.24H600.316V412.2ZM583.036 435.24H600.316V441H583.036V435.24ZM669.473 406.44H686.753V412.2H669.473V406.44ZM663.713 412.2H669.473V435.24H663.713V412.2ZM686.753 412.2H692.513V435.24H686.753V412.2ZM669.473 435.24H686.753V441H669.473V435.24ZM704.02 406.44H721.3V412.2H704.02V406.44ZM698.26 412.2H704.02V435.24H698.26V412.2ZM721.3 412.2H727.06V435.24H721.3V412.2ZM704.02 435.24H721.3V441H704.02V435.24ZM767.401 435.24H773.161V417.96H767.401V412.2H773.161V406.44H778.921V435.24H784.681V441H767.401V435.24ZM790.463 435.24H796.223V417.96H790.463V412.2H796.223V406.44H801.983V435.24H807.743V441H790.463V435.24ZM813.526 435.24H819.286V417.96H813.526V412.2H819.286V406.44H825.046V435.24H830.806V441H813.526V435.24ZM871.182 435.24H876.942V417.96H871.182V412.2H876.942V406.44H882.702V435.24H888.462V441H871.182V435.24ZM52.6506 493.24H58.4106V475.96H52.6506V470.2H58.4106V464.44H64.1706V493.24H69.9306V499H52.6506V493.24ZM202.551 464.44H219.831V470.2H202.551V464.44ZM196.791 470.2H202.551V493.24H196.791V470.2ZM219.831 470.2H225.591V493.24H219.831V470.2ZM202.551 493.24H219.831V499H202.551V493.24ZM352.416 493.24H358.176V475.96H352.416V470.2H358.176V464.44H363.936V493.24H369.696V499H352.416V493.24ZM444.666 493.24H450.426V475.96H444.666V470.2H450.426V464.44H456.186V493.24H461.946V499H444.666V493.24ZM559.973 464.44H577.253V470.2H559.973V464.44ZM554.213 470.2H559.973V493.24H554.213V470.2ZM577.253 470.2H583.013V493.24H577.253V470.2ZM559.973 493.24H577.253V499H559.973V493.24ZM657.948 493.24H663.708V475.96H657.948V470.2H663.708V464.44H669.468V493.24H675.228V499H657.948V493.24ZM750.198 493.24H755.958V475.96H750.198V470.2H755.958V464.44H761.718V493.24H767.478V499H750.198V493.24ZM796.317 464.44H813.597V470.2H796.317V464.44ZM790.557 470.2H796.317V493.24H790.557V470.2ZM813.597 470.2H819.357V493.24H813.597V470.2ZM796.317 493.24H813.597V499H796.317V493.24ZM825.104 493.24H830.864V475.96H825.104V470.2H830.864V464.44H836.624V493.24H842.384V499H825.104V493.24ZM853.926 464.44H871.206V470.2H853.926V464.44ZM848.166 470.2H853.926V493.24H848.166V470.2ZM871.206 470.2H876.966V493.24H871.206V470.2ZM853.926 493.24H871.206V499H853.926V493.24ZM888.473 464.44H905.753V470.2H888.473V464.44ZM882.713 470.2H888.473V493.24H882.713V470.2ZM905.753 470.2H911.513V493.24H905.753V470.2ZM888.473 493.24H905.753V499H888.473V493.24ZM969.151 493.24H974.911V475.96H969.151V470.2H974.911V464.44H980.671V493.24H986.431V499H969.151V493.24ZM283.27 522.44H300.55V528.2H283.27V522.44ZM277.51 528.2H283.27V551.24H277.51V528.2ZM300.55 528.2H306.31V551.24H300.55V528.2ZM283.27 551.24H300.55V557H283.27V551.24ZM438.895 522.44H456.175V528.2H438.895V522.44ZM433.135 528.2H438.895V551.24H433.135V528.2ZM456.175 528.2H461.935V551.24H456.175V528.2ZM438.895 551.24H456.175V557H438.895V551.24ZM611.817 522.44H629.097V528.2H611.817V522.44ZM606.057 528.2H611.817V551.24H606.057V528.2ZM629.097 528.2H634.857V551.24H629.097V528.2ZM611.817 551.24H629.097V557H611.817V551.24ZM657.901 551.24H663.661V533.96H657.901V528.2H663.661V522.44H669.421V551.24H675.181V557H657.901V551.24ZM686.723 522.44H704.003V528.2H686.723V522.44ZM680.963 528.2H686.723V551.24H680.963V528.2ZM704.003 528.2H709.763V551.24H704.003V528.2ZM686.723 551.24H704.003V557H686.723V551.24ZM732.807 551.24H738.567V533.96H732.807V528.2H738.567V522.44H744.327V551.24H750.087V557H732.807V551.24ZM87.2444 609.24H93.0044V591.96H87.2444V586.2H93.0044V580.44H98.7644V609.24H104.524V615H87.2444V609.24ZM167.958 580.44H185.238V586.2H167.958V580.44ZM162.198 586.2H167.958V609.24H162.198V586.2ZM185.238 586.2H190.998V609.24H185.238V586.2ZM167.958 609.24H185.238V615H167.958V609.24ZM214.041 609.24H219.801V591.96H214.041V586.2H219.801V580.44H225.561V609.24H231.321V615H214.041V609.24ZM294.754 580.44H312.034V586.2H294.754V580.44ZM288.994 586.2H294.754V609.24H288.994V586.2ZM312.034 586.2H317.794V609.24H312.034V586.2ZM294.754 609.24H312.034V615H294.754V609.24ZM444.619 609.24H450.379V591.96H444.619V586.2H450.379V580.44H456.139V609.24H461.899V615H444.619V609.24ZM571.463 609.24H577.223V591.96H571.463V586.2H577.223V580.44H582.983V609.24H588.743V615H571.463V609.24ZM611.823 609.24H617.583V591.96H611.823V586.2H617.583V580.44H623.343V609.24H629.103V615H611.823V609.24ZM779.02 580.44H796.3V586.2H779.02V580.44ZM773.26 586.2H779.02V609.24H773.26V586.2ZM796.3 586.2H802.06V609.24H796.3V586.2ZM779.02 609.24H796.3V615H779.02V609.24ZM830.864 580.44H848.144V586.2H830.864V580.44ZM825.104 586.2H830.864V609.24H825.104V586.2ZM848.144 586.2H853.904V609.24H848.144V586.2ZM830.864 609.24H848.144V615H830.864V609.24ZM144.895 638.44H162.175V644.2H144.895V638.44ZM139.135 644.2H144.895V667.24H139.135V644.2ZM162.175 644.2H167.935V667.24H162.175V644.2ZM144.895 667.24H162.175V673H144.895V667.24ZM623.401 667.24H629.161V649.96H623.401V644.2H629.161V638.44H634.921V667.24H640.681V673H623.401V667.24ZM790.598 638.44H807.878V644.2H790.598V638.44ZM784.838 644.2H790.598V667.24H784.838V644.2ZM807.878 644.2H813.638V667.24H807.878V644.2ZM790.598 667.24H807.878V673H790.598V667.24ZM0.76 725.24H6.52V707.96H0.76V702.2H6.52V696.44H12.28V725.24H18.04V731H0.76V725.24ZM29.5825 696.44H46.8625V702.2H29.5825V696.44ZM23.8225 702.2H29.5825V725.24H23.8225V702.2ZM46.8625 702.2H52.6225V725.24H46.8625V702.2ZM29.5825 725.24H46.8625V731H29.5825V725.24ZM214.041 725.24H219.801V707.96H214.041V702.2H219.801V696.44H225.561V725.24H231.321V731H214.041V725.24ZM277.458 696.44H294.738V702.2H277.458V696.44ZM271.698 702.2H277.458V725.24H271.698V702.2ZM294.738 702.2H300.498V725.24H294.738V702.2ZM277.458 725.24H294.738V731H277.458V725.24ZM669.479 725.24H675.239V707.96H669.479V702.2H675.239V696.44H680.999V725.24H686.759V731H669.479V725.24ZM779.026 725.24H784.786V707.96H779.026V702.2H784.786V696.44H790.546V725.24H796.306V731H779.026V725.24ZM905.869 725.24H911.629V707.96H905.869V702.2H911.629V696.44H917.389V725.24H923.149V731H905.869V725.24ZM265.973 754.44H283.253V760.2H265.973V754.44ZM260.213 760.2H265.973V783.24H260.213V760.2ZM283.253 760.2H289.013V783.24H283.253V760.2ZM265.973 783.24H283.253V789H265.973V783.24ZM294.76 783.24H300.52V765.96H294.76V760.2H300.52V754.44H306.28V783.24H312.04V789H294.76V783.24ZM634.926 754.44H652.206V760.2H634.926V754.44ZM629.166 760.2H634.926V783.24H629.166V760.2ZM652.206 760.2H657.966V783.24H652.206V760.2ZM634.926 783.24H652.206V789H634.926V783.24ZM681.01 783.24H686.77V765.96H681.01V760.2H686.77V754.44H692.53V783.24H698.29V789H681.01V783.24ZM859.744 783.24H865.504V765.96H859.744V760.2H865.504V754.44H871.264V783.24H877.024V789H859.744V783.24ZM905.864 754.44H923.144V760.2H905.864V754.44ZM900.104 760.2H905.864V783.24H900.104V760.2ZM923.144 760.2H928.904V783.24H923.144V760.2ZM905.864 783.24H923.144V789H905.864V783.24ZM225.619 841.24H231.379V823.96H225.619V818.2H231.379V812.44H237.139V841.24H242.899V847H225.619V841.24ZM289.036 812.44H306.316V818.2H289.036V812.44ZM283.276 818.2H289.036V841.24H283.276V818.2ZM306.316 818.2H312.076V841.24H306.316V818.2ZM289.036 841.24H306.316V847H289.036V841.24ZM577.276 841.24H583.036V823.96H577.276V818.2H583.036V812.44H588.796V841.24H594.556V847H577.276V841.24ZM87.2444 899.24H93.0044V881.96H87.2444V876.2H93.0044V870.44H98.7644V899.24H104.524V905H87.2444V899.24ZM144.901 899.24H150.661V881.96H144.901V876.2H150.661V870.44H156.421V899.24H162.181V905H144.901V899.24ZM167.963 899.24H173.723V881.96H167.963V876.2H173.723V870.44H179.483V899.24H185.243V905H167.963V899.24ZM260.213 899.24H265.973V881.96H260.213V876.2H265.973V870.44H271.733V899.24H277.493V905H260.213V899.24ZM317.869 899.24H323.629V881.96H317.869V876.2H323.629V870.44H329.389V899.24H335.149V905H317.869V899.24ZM363.989 870.44H381.269V876.2H363.989V870.44ZM358.229 876.2H363.989V899.24H358.229V876.2ZM381.269 876.2H387.029V899.24H381.269V876.2ZM363.989 899.24H381.269V905H363.989V899.24ZM427.369 899.24H433.129V881.96H427.369V876.2H433.129V870.44H438.889V899.24H444.649V905H427.369V899.24ZM519.619 899.24H525.379V881.96H519.619V876.2H525.379V870.44H531.139V899.24H536.899V905H519.619V899.24ZM704.114 870.44H721.394V876.2H704.114V870.44ZM698.354 876.2H704.114V899.24H698.354V876.2ZM721.394 876.2H727.154V899.24H721.394V876.2ZM704.114 899.24H721.394V905H704.114V899.24ZM732.901 899.24H738.661V881.96H732.901V876.2H738.661V870.44H744.421V899.24H750.181V905H732.901V899.24ZM156.432 957.24H162.192V939.96H156.432V934.2H162.192V928.44H167.952V957.24H173.712V963H156.432V957.24ZM214.088 957.24H219.848V939.96H214.088V934.2H219.848V928.44H225.608V957.24H231.368V963H214.088V957.24ZM312.098 928.44H329.378V934.2H312.098V928.44ZM306.338 934.2H312.098V957.24H306.338V934.2ZM329.378 934.2H335.138V957.24H329.378V934.2ZM312.098 957.24H329.378V963H312.098V957.24ZM346.645 928.44H363.925V934.2H346.645V928.44ZM340.885 934.2H346.645V957.24H340.885V934.2ZM363.925 934.2H369.685V957.24H363.925V934.2ZM346.645 957.24H363.925V963H346.645V957.24ZM410.026 957.24H415.786V939.96H410.026V934.2H415.786V928.44H421.546V957.24H427.306V963H410.026V957.24ZM709.838 957.24H715.598V939.96H709.838V934.2H715.598V928.44H721.358V957.24H727.118V963H709.838V957.24ZM738.661 928.44H755.941V934.2H738.661V928.44ZM732.901 934.2H738.661V957.24H732.901V934.2ZM755.941 934.2H761.701V957.24H755.941V934.2ZM738.661 957.24H755.941V963H738.661V957.24ZM888.526 957.24H894.286V939.96H888.526V934.2H894.286V928.44H900.046V957.24H905.806V963H888.526V957.24ZM196.786 986.44H214.066V992.2H196.786V986.44ZM191.026 992.2H196.786V1015.24H191.026V992.2ZM214.066 992.2H219.826V1015.24H214.066V992.2ZM196.786 1015.24H214.066V1021H196.786V1015.24ZM225.573 1015.24H231.333V997.96H225.573V992.2H231.333V986.44H237.093V1015.24H242.853V1021H225.573V1015.24ZM577.276 1015.24H583.036V997.96H577.276V992.2H583.036V986.44H588.796V1015.24H594.556V1021H577.276V1015.24ZM606.098 986.44H623.378V992.2H606.098V986.44ZM600.338 992.2H606.098V1015.24H600.338V992.2ZM623.378 992.2H629.138V1015.24H623.378V992.2ZM606.098 1015.24H623.378V1021H606.098V1015.24ZM738.666 1015.24H744.426V997.96H738.666V992.2H744.426V986.44H750.186V1015.24H755.946V1021H738.666V1015.24ZM848.213 1015.24H853.973V997.96H848.213V992.2H853.973V986.44H859.733V1015.24H865.493V1021H848.213V1015.24ZM110.301 1044.44H127.581V1050.2H110.301V1044.44ZM104.541 1050.2H110.301V1073.24H104.541V1050.2ZM127.581 1050.2H133.341V1073.24H127.581V1050.2ZM110.301 1073.24H127.581V1079H110.301V1073.24ZM363.948 1073.24H369.708V1055.96H363.948V1050.2H369.708V1044.44H375.468V1073.24H381.228V1079H363.948V1073.24ZM531.145 1044.44H548.425V1050.2H531.145V1044.44ZM525.385 1050.2H531.145V1073.24H525.385V1050.2ZM548.425 1050.2H554.185V1073.24H548.425V1050.2ZM531.145 1073.24H548.425V1079H531.145V1073.24ZM617.583 1044.44H634.863V1050.2H617.583V1044.44ZM611.823 1050.2H617.583V1073.24H611.823V1050.2ZM634.863 1050.2H640.623V1073.24H634.863V1050.2ZM617.583 1073.24H634.863V1079H617.583V1073.24ZM790.504 1044.44H807.784V1050.2H790.504V1044.44ZM784.744 1050.2H790.504V1073.24H784.744V1050.2ZM807.784 1050.2H813.544V1073.24H807.784V1050.2ZM790.504 1073.24H807.784V1079H790.504V1073.24ZM911.536 1044.44H928.816V1050.2H911.536V1044.44ZM905.776 1050.2H911.536V1073.24H905.776V1050.2ZM928.816 1050.2H934.576V1073.24H928.816V1050.2ZM911.536 1073.24H928.816V1079H911.536V1073.24ZM6.52 1102.44H23.8V1108.2H6.52V1102.44ZM0.76 1108.2H6.52V1131.24H0.76V1108.2ZM23.8 1108.2H29.56V1131.24H23.8V1108.2ZM6.52 1131.24H23.8V1137H6.52V1131.24ZM41.0669 1102.44H58.3469V1108.2H41.0669V1102.44ZM35.3069 1108.2H41.0669V1131.24H35.3069V1108.2ZM58.3469 1108.2H64.1069V1131.24H58.3469V1108.2ZM41.0669 1131.24H58.3469V1137H41.0669V1131.24ZM156.338 1131.24H162.098V1113.96H156.338V1108.2H162.098V1102.44H167.858V1131.24H173.618V1137H156.338V1131.24ZM358.129 1102.44H375.409V1108.2H358.129V1102.44ZM352.369 1108.2H358.129V1131.24H352.369V1108.2ZM375.409 1108.2H381.169V1131.24H375.409V1108.2ZM358.129 1131.24H375.409V1137H358.129V1131.24ZM513.754 1102.44H531.034V1108.2H513.754V1102.44ZM507.994 1108.2H513.754V1131.24H507.994V1108.2ZM531.034 1108.2H536.794V1131.24H531.034V1108.2ZM513.754 1131.24H531.034V1137H513.754V1131.24ZM680.916 1131.24H686.676V1113.96H680.916V1108.2H686.676V1102.44H692.436V1131.24H698.196V1137H680.916V1131.24ZM755.869 1131.24H761.629V1113.96H755.869V1108.2H761.629V1102.44H767.389V1131.24H773.149V1137H755.869V1131.24ZM882.713 1131.24H888.473V1113.96H882.713V1108.2H888.473V1102.44H894.233V1131.24H899.993V1137H882.713V1131.24ZM946.129 1102.44H963.409V1108.2H946.129V1102.44ZM940.369 1108.2H946.129V1131.24H940.369V1108.2ZM963.409 1108.2H969.169V1131.24H963.409V1108.2ZM946.129 1131.24H963.409V1137H946.129V1131.24Z" fill="#2DAF58"/>
</svg>
