<svg width="308" height="200" viewBox="0 0 308 200" fill="none" xmlns="http://www.w3.org/2000/svg">
<g clip-path="url(#clip0_388:1540)">
<path fill-rule="evenodd" clip-rule="evenodd" d="M30.3491 0.214784C20.616 0.875453 12.3496 3.60282 7.74145 8.96271C1.92505 15.7388 1.36456 22.4403 0.83428 33.4074C-0.15246 54.2471 0.545631 75.4191 0.267063 96.3471C-0.227714 106.524 -0.0348393 116.723 0.844342 126.873C2.55603 139.602 18.3271 144.176 29.4832 145.098C31.9668 145.304 34.3464 145.267 36.8669 145.28C43.4855 145.321 38.488 154.31 43.3479 162.59C46.0566 167.201 68.4424 166.795 70.4295 165.104C72.7786 163.119 72.0271 152.849 71.0068 151.328C68.728 147.94 53.3394 152.619 58.8438 142.604C59.8035 140.859 61.7602 140.087 63.1228 138.904C70.0872 132.853 70.7181 127.29 71.1946 115.462C71.8894 98.1596 72.7518 37.1376 70.547 22.5759C67.4524 2.12563 47.7074 -0.954089 30.3424 0.214784H30.3491ZM39.7903 26.4924C40.9874 34.6014 41.3507 42.8137 40.8743 50.9982L40.8206 105.908C40.7736 110.523 41.4147 121.896 37.9879 123.712C37.1572 124.132 36.2163 124.277 35.2991 124.127C34.382 123.976 33.5354 123.537 32.8797 122.872C30.4297 120.046 31.1479 102.124 31.1479 97.2685V42.3586C31.1882 38.0152 30.6646 26.6246 34.041 24.7408C34.4768 24.4677 34.9637 24.2883 35.4713 24.2137C35.9789 24.1391 36.4963 24.1709 36.9911 24.3072C37.6251 24.3346 38.235 24.5593 38.7373 24.9506C39.2397 25.3419 39.6098 25.8804 39.7969 26.4924H39.7903Z" fill="#2DAF58"/>
<path fill-rule="evenodd" clip-rule="evenodd" d="M120.202 138.797C121.091 141.847 119.742 143.828 123.038 144.838C124.216 145.197 146.421 145.628 148.485 144.316C150.697 142.911 150.271 140.356 150.271 137.137V37.8033C150.271 29.0554 150.626 28.4083 141.682 28.4083C135.78 28.1279 129.868 28.1652 123.971 28.52C119.383 29.384 120.615 36.4853 120.615 43.048C120.615 53.0764 121 119.279 120.054 123.653C119.416 126.594 117.198 126.828 113.936 126.55C111.412 121.806 111.794 116.548 111.714 110.609C111.378 86.3369 111.62 60.9809 111.627 36.57C111.627 27.7612 110.754 28.4083 101.326 28.4083C97.856 28.4083 85.6627 27.7713 83.6457 29.2146C81.5645 30.7053 81.9874 33.7207 81.9909 36.8784C81.9909 64.4062 81.6719 92.4151 82.1889 119.848C82.0058 125.273 82.8278 130.685 84.612 135.806C86.7024 140.303 90.387 143.846 94.9383 145.735C99.4901 147.623 104.577 147.72 109.197 146.007C115.016 143.744 117.715 139.109 120.185 138.797" fill="#2DAF58"/>
<path fill-rule="evenodd" clip-rule="evenodd" d="M273.705 108.057C274.749 109.772 278.249 133.833 278.937 138.045C280.165 145.556 281.72 145.061 289.291 145.061C306.7 145.061 309.479 146.915 307.415 138.258C303.656 122.389 298.917 103.643 295.695 88.3862C294.248 81.5391 298.642 65.5138 300.172 58.3751C301.229 53.4422 302.186 48.8511 303.243 43.8675C307.116 25.7279 308.126 28.4079 288.667 28.4079C280.726 28.4079 280.031 28.5705 278.806 36.2173C278.168 40.1948 274.594 65.0155 273.691 66.4489C272.621 65.2391 272.54 61.6413 272.224 59.6187C271.846 57.1827 271.442 54.6111 271.063 52.1987C270.261 47.1164 269.506 42.3022 268.714 37.2608C267.633 30.4068 267.915 28.3909 260.246 28.4079C238.736 28.4485 241.646 23.6646 249.113 57.3893C250.641 64.2871 255.084 79.7195 254.631 86.1875C254.4 89.4738 249.899 109.69 248.885 114.562C247.902 119.289 246.928 124.093 245.918 128.812C241.934 147.494 240.495 145.058 259.008 145.075C266.593 145.075 267.361 144.855 268.529 137.523L272.104 115.162C272.315 113.854 272.496 112.75 272.688 111.503C272.785 110.869 272.852 110.192 272.973 109.609L273.705 108.057Z" fill="#2DAF58"/>
<path fill-rule="evenodd" clip-rule="evenodd" d="M161.025 7.87872V139.911C161.025 143.495 162.579 145.06 166.133 145.06H186.606C189.963 145.06 191.396 143.282 191.396 139.911V7.87872C191.396 4.30772 189.849 2.8136 186.301 2.8136H166.13C162.609 2.8136 161.021 4.39242 161.021 7.87872" fill="#2DAF58"/>
<path fill-rule="evenodd" clip-rule="evenodd" d="M204.639 28.753C202.112 29.7423 201.998 31.9817 202.004 35.0208V136.516C202.004 145.647 202.934 145.058 211.667 145.058C235.137 145.058 232.519 148.043 232.519 129.422V37.1824C232.519 27.6959 231.784 28.404 222.669 28.404C216.657 28.1346 210.633 28.2477 204.635 28.7428" fill="#2DAF58"/>
<path fill-rule="evenodd" clip-rule="evenodd" d="M204.799 3.06661C201.325 4.22871 202.01 8.48746 202.01 12.2143C202.01 16.3579 201.456 20.4337 205.279 21.1655C206.742 21.4433 228.48 21.3892 229.618 21.0876C233.246 20.1288 232.525 15.7514 232.525 11.906C232.525 7.76244 233.196 3.5782 229.088 2.91075C227.135 2.59567 205.906 2.71086 204.799 3.08015" fill="#2DAF58"/>
<path d="M133.003 190.652C135.213 191.989 137.737 192.707 140.313 192.732C144.485 192.732 146.922 190.506 146.922 187.291C146.922 184.312 145.244 182.608 140.968 180.952C135.816 179.108 132.631 176.412 132.631 171.919C132.631 166.952 136.705 163.263 142.844 163.263C145.266 163.179 147.668 163.717 149.828 164.825L148.701 168.182C146.857 167.182 144.796 166.661 142.703 166.668C138.394 166.668 136.752 169.273 136.752 171.445C136.752 174.426 138.672 175.893 143.032 177.597C148.372 179.674 151.087 182.28 151.087 186.962C151.087 191.881 147.476 196.14 140.011 196.14C137.198 196.174 134.423 195.473 131.956 194.107L133.003 190.652Z" fill="#2DAF58"/>
<path d="M163.704 195.668V182.139L153.723 163.783H158.361L162.811 172.592C164.03 175.007 164.966 176.948 165.949 179.171H166.047C166.936 177.088 168.013 175.007 169.232 172.592L173.776 163.783H178.415L167.826 182.078V195.654L163.704 195.668Z" fill="#2DAF58"/>
<path d="M180.857 190.642C183.067 191.979 185.59 192.697 188.166 192.722C192.338 192.722 194.772 190.496 194.772 187.281C194.772 184.303 193.093 182.599 188.821 180.942C183.669 179.099 180.484 176.402 180.484 171.909C180.484 166.942 184.555 163.253 190.694 163.253C193.116 163.169 195.52 163.707 197.681 164.815L196.554 168.172C194.71 167.172 192.649 166.652 190.556 166.658C186.244 166.658 184.605 169.263 184.605 171.435C184.605 174.416 186.525 175.884 190.885 177.588C196.225 179.664 198.94 182.27 198.94 186.952C198.94 191.872 195.329 196.13 187.881 196.13C185.068 196.164 182.293 195.464 179.826 194.097L180.857 190.642Z" fill="#2DAF58"/>
<path d="M210.527 167.279H200.918V163.776H224.301V167.276H214.635V195.657H210.527V167.279Z" fill="#2DAF58"/>
<path d="M244.17 180.716H231.893V192.212H245.576V195.664H227.818V163.776H244.874V167.225H231.893V177.304H244.17V180.716Z" fill="#2DAF58"/>
<path d="M277.487 181.655C277.255 177.21 276.973 171.863 277.017 167.889H276.876C275.799 171.616 274.486 175.6 272.895 179.998L267.324 195.468H264.229L259.121 180.283C257.621 175.79 256.356 171.673 255.466 167.889H255.372C255.279 171.863 255.037 177.21 254.761 181.987L253.919 195.657H250.029L252.231 163.776H257.433L262.823 179.195C264.136 183.122 265.213 186.622 266.008 189.932H266.149C266.945 186.716 268.072 183.216 269.476 179.195L275.101 163.776H280.303L282.269 195.657H278.286L277.487 181.655Z" fill="#2DAF58"/>
<path d="M287.994 190.645C290.204 191.982 292.726 192.7 295.301 192.725C299.476 192.725 301.909 190.499 301.909 187.284C301.909 184.306 300.231 182.602 295.959 180.945C290.807 179.102 287.619 176.405 287.619 171.912C287.619 166.946 291.693 163.256 297.832 163.256C300.253 163.172 302.656 163.71 304.816 164.818L303.688 168.176C301.845 167.174 299.784 166.654 297.691 166.661C293.381 166.661 291.744 169.267 291.744 171.438C291.744 174.42 293.663 175.887 298.023 177.591C303.363 179.668 306.078 182.273 306.078 186.956C306.078 191.875 302.47 196.134 295.002 196.134C292.189 196.168 289.414 195.468 286.947 194.101L287.994 190.645Z" fill="#2DAF58"/>
</g>
<defs>
<clipPath id="clip0_388:1540">
<rect width="308" height="200" fill="white"/>
</clipPath>
</defs>
</svg>
