<svg width="283" height="100" viewBox="0 0 283 100" fill="none" xmlns="http://www.w3.org/2000/svg">
<g clip-path="url(#clip0_376:1210)">
<path d="M53.5436 44.7697V62.9577C53.5436 67.6225 55.7973 69.8842 60.4456 69.8842H62.4645C67.1128 69.8842 69.3665 67.6225 69.3665 62.9577V54.0522H79.9776V62.5808C79.9776 74.2663 74.1086 80.2975 62.3237 80.2975H60.07C48.4259 80.2975 42.416 74.4076 42.416 63.9943V19.3254C42.416 6.27343 48.285 0.242188 60.07 0.242188H62.3237C73.9678 0.242188 79.9776 6.13208 79.9776 17.959V44.6755H53.5906V44.7697H53.5436ZM53.5436 34.0737H69.1787V17.4878C69.1787 12.823 66.925 10.5613 62.2767 10.5613H60.5395C55.8912 10.5613 53.6375 12.823 53.6375 17.4878V34.0737H53.5436Z" fill="#040404"/>
<path d="M87.2085 1.18456H98.1953V6.22631C100.825 3.44629 105.332 0.336426 111.577 0.336426C120.967 0.336426 125.568 6.60326 125.568 15.7915V64.7482C125.568 74.0307 120.92 80.2033 111.577 80.2033C105.191 80.2033 100.825 77.1877 98.1953 74.549V99.8048H87.2085V1.18456ZM98.1953 65.7377C101.2 68.3764 104.722 69.7428 108.337 69.7428C112.328 69.7428 114.722 67.8581 114.722 63.3346V17.1579C114.722 12.6345 112.469 10.7497 108.337 10.7497C104.722 10.7497 101.2 12.2576 98.1953 14.7549V65.7377Z" fill="#040404"/>
<path d="M132.235 52.1674C132.235 42.508 135.381 38.5971 143.739 35.7229L158.482 30.6811V17.4878C158.482 12.823 156.228 10.3257 151.58 10.3257H149.842C145.194 10.3257 142.94 12.823 142.94 17.4878V28.5136H132.329V17.8647C132.329 6.17919 138.198 0.147949 149.983 0.147949H152.096C163.74 0.147949 169.75 6.03783 169.75 17.8647V79.2609H158.763V74.3605C155.758 77.2348 151.627 80.1562 145.382 80.1562C136.602 80.1562 132.517 75.1144 132.517 66.3503V52.1674H132.235ZM158.528 66.1147V40.3877L148.528 44.1572C144.537 45.8064 143.128 47.7854 143.128 52.3088V64.2299C143.128 67.9995 145.006 69.8842 148.528 69.8842C151.861 69.7429 154.866 68.612 158.528 66.1147Z" fill="#040404"/>
<path d="M213.791 79.308H202.804V16.404C202.804 12.4931 200.926 10.7497 197.545 10.7497C194.54 10.7497 191.301 11.8806 187.404 14.6606V79.308H176.417V1.18456H187.404V6.22631C190.55 3.21069 194.775 0.336426 200.785 0.336426C206.419 0.336426 210.175 2.59814 212.147 6.74462C216.045 3.35204 220.646 0.336426 227.031 0.336426C235.53 0.336426 239.896 5.61376 239.896 14.1423V79.4023H228.909V16.404C228.909 12.4931 227.031 10.7497 223.651 10.7497C220.646 10.7497 217.406 11.8806 213.509 14.6606V79.308H213.791Z" fill="#040404"/>
<path d="M28.5183 8.34668V22.7651L10.1131 40.3405L28.5183 57.6804V72.3815L0.394043 45.7592V35.2046L28.5183 8.34668Z" fill="#040404"/>
<path d="M282.106 35.2046V45.7592L253.982 72.3815V57.6804L272.387 40.3405L253.982 22.6709V8.34668L282.106 35.2046Z" fill="#040404"/>
</g>
<defs>
<clipPath id="clip0_376:1210">
<rect width="282.5" height="100" fill="white"/>
</clipPath>
</defs>
</svg>
