<svg width="28" height="31" viewBox="0 0 28 31" fill="none" xmlns="http://www.w3.org/2000/svg">
<path fill-rule="evenodd" clip-rule="evenodd" d="M24.5 0H3.5V1.72222H5.25V5.16667H1.75V6.88889H0V13.7778H1.75V15.5H3.5V17.2222H5.25H8.75V18.9444H10.5V20.6667H12.25V27.5556H8.75V31H19.25V27.5556H15.75V20.6667H17.5V18.9444H19.25V17.2222H22.75H24.5V15.5H26.25V13.7778H28V6.88889H26.25V5.16667H22.75V1.72222H24.5V0ZM26.25 6.88889V13.7778H24.5V15.5H22.75V6.88889H26.25ZM3.5 15.5V13.7778H1.75V6.88889H5.25V15.5H3.5Z" fill="#2DAF58"/>
</svg>
