<svg width="360" height="50" viewBox="0 0 360 50" fill="none" xmlns="http://www.w3.org/2000/svg">
<g clip-path="url(#clip0_342:155)">
<path d="M260.309 0.810547C259.877 0.810547 259.453 0.850981 259.02 0.875594V11.1513C259.446 11.1126 259.877 11.0915 260.309 11.0915C262.193 11.0857 264.059 11.453 265.797 12.1716C267.535 12.8903 269.109 13.9457 270.427 15.2756C273.109 17.9826 274.61 21.6191 274.61 25.4062C274.61 29.1933 273.109 32.8298 270.427 35.5368C267.715 38.1739 264.123 39.7244 260.307 39.7244C256.492 39.7244 252.903 38.1809 250.188 35.5368C247.904 33.2522 246.469 30.2723 246.115 27.0807H235.827C236.688 39.8774 247.308 50.0001 260.307 50.0001C273.877 50.0001 284.875 38.9896 284.875 25.4053C284.875 11.8211 273.879 0.810547 260.309 0.810547Z" fill="#040404"/>
<path d="M11.4402 2.2854V49.9947H0V2.2854H11.4402Z" fill="#040404"/>
<path d="M90.6399 13.7284V49.9947H79.1997V13.7284H66.8071V2.2854H103.034V13.7284H90.6399Z" fill="#040404"/>
<path d="M118.212 39.719H140.066V49.9929H106.775V2.2854H140.066V12.554H118.212V20.9925H136.766V31.2717H118.212V39.719Z" fill="#040404"/>
<path d="M174.677 26.1348L190.441 41.9201L182.302 49.9947L166.535 34.2111L158.467 26.1348L142.703 10.353L150.842 2.2854L166.537 17.9951L182.302 2.2854L190.439 10.3618L174.677 26.1348Z" fill="#040404"/>
<path d="M204.073 48.6024C201.723 47.646 199.818 46.2501 198.059 44.7119C192.485 39.5714 193.218 32.745 193.218 32.084L203.265 32.2316V32.1578C203.265 32.1578 203.265 34.8704 204.438 36.639C205.901 38.8377 208.614 39.9382 212.577 39.9406C219.177 39.9406 222.113 38.2511 222.113 35.4611C222.113 32.5252 218.374 30.6881 212.285 30.0288C208.547 29.5893 205.248 28.7789 202.604 27.6819C200.112 26.6499 198.059 25.2593 196.519 23.5681C194.363 21.2466 193.183 18.2018 193.218 15.0522C193.218 10.5763 194.979 7.56478 196.519 5.80148C199.889 1.98129 205.317 0 212.8 0C222.625 0 227.466 4.33353 229.814 7.92869C232.307 11.8192 232.451 16.2987 232.451 17.0335H222.405V17.1073C222.405 17.1073 222.479 14.9028 221.306 13.361C219.837 11.3059 216.907 10.0577 212.8 10.0577C208.545 10.0577 203.631 11.1582 203.631 14.3877C203.631 17.473 206.859 19.3102 213.386 20.0415C220.644 20.8502 226.001 23.1251 229.23 26.8697C231.315 29.2569 232.46 32.3053 232.456 35.4576C232.456 36.9994 232.456 40.8934 229.305 44.4148C227.692 46.2484 225.49 47.6442 222.778 48.6006C219.99 49.5517 216.617 49.9947 212.584 49.9947C209.426 49.9965 206.563 49.5535 204.073 48.6024Z" fill="#040404"/>
<path d="M299.609 12.554V20.9925H313.031V31.2717H299.609V49.9929H288.171V2.2854H317.652V12.554H299.609Z" fill="#040404"/>
<path d="M347.609 13.7284V49.9947H336.167V13.7284H323.773V2.2854H360V13.7284H347.609Z" fill="#040404"/>
<path d="M49.5115 2.2854V26.6481L19.0596 3.16441V19.6389L60.9498 49.9929V2.2854H49.5115Z" fill="#040404"/>
</g>
<defs>
<clipPath id="clip0_342:155">
<rect width="360" height="50" fill="white"/>
</clipPath>
</defs>
</svg>
