<svg width="300" height="58" viewBox="0 0 300 58" fill="none" xmlns="http://www.w3.org/2000/svg">
<path d="M120.097 34.946V34.8554C120.097 29.7647 121.062 26.1232 122.955 23.8949C124.43 22.3549 126.505 21.5216 128.634 21.5577C131.183 21.5577 133.13 22.3368 134.532 23.8766C135.187 24.6195 135.715 25.471 136.134 26.3586H147.273C146.491 23.2788 145.089 20.3983 143.141 17.8801C139.647 13.9125 134.714 11.9197 128.325 11.9197C122.282 11.9197 117.567 13.9669 114.164 18.0612C110.869 22.0288 109.231 27.5906 109.231 34.6743C109.231 34.7647 109.231 35.1091 109.231 35.1997C109.231 42.2833 110.869 47.827 114.164 51.8127C117.567 55.9251 122.282 57.9723 128.325 57.9542C134.696 57.9542 139.628 55.9614 143.141 51.9938C145.089 49.4757 146.491 46.595 147.273 43.5152H138.318C137.116 43.5152 135.933 44.0768 135.26 45.0733C135.042 45.3994 134.787 45.7074 134.532 46.0152C133.148 47.5552 131.201 48.3342 128.634 48.3342C126.486 48.3885 124.43 47.5372 122.955 45.9972C121.044 43.787 120.097 40.1274 120.097 35.0367V34.946Z" fill="#040404"/>
<path d="M180.801 13.1521C177.634 11.8115 174.102 11.5579 170.79 12.4637C167.313 13.3333 164.364 15.616 162.672 18.7683V3.82203C162.672 1.7205 160.961 0.0356445 158.867 0.0356445H151.823V57.1757H162.635V34.403C162.635 30.526 163.418 27.4825 165.02 25.2723C166.585 23.0801 169.17 21.8301 171.864 21.9568C174.485 21.8845 176.96 23.1888 178.38 25.399L178.398 25.4171C179.272 26.7034 179.891 28.1347 180.2 29.6565C180.473 31.1602 180.601 32.6819 180.601 34.2219V57.1394H191.285V31.4139C191.285 26.323 190.284 22.3373 188.282 19.4567C186.407 16.7211 183.822 14.529 180.801 13.1521Z" fill="#040404"/>
<path d="M100.512 17.954C96.9988 13.9683 92.0661 11.9574 85.7137 11.9574C79.6705 11.9574 74.938 14.0046 71.5524 18.099C68.2759 22.0666 66.6196 27.6283 66.6196 34.7121C66.6196 42.1217 68.3124 47.8284 71.698 51.8141C75.1019 55.8904 79.7978 57.9557 85.8591 57.9557C90.8467 57.9557 94.9603 56.5789 98.2549 54.133C101.549 51.6874 103.77 48.1545 104.935 43.5167H96.4347C95.1242 43.5167 93.8864 44.1508 93.1219 45.2015C92.1026 46.5965 90.1185 48.3358 86.5327 48.3358C83.766 48.3358 81.6909 47.43 80.2895 45.6545C78.7968 44.0058 78.014 41.4695 77.9048 38.0273H105.39C105.408 29.2044 103.934 22.0303 100.512 17.954ZM77.9232 30.5451C78.0324 27.6827 78.815 25.4724 80.3076 23.9144C81.8001 22.3744 83.8752 21.5231 86.0229 21.5955C88.5896 21.5955 90.6464 22.4833 91.9204 23.9144C93.1947 25.3638 93.941 27.5559 94.1594 30.5451H77.9232Z" fill="#040404"/>
<path d="M73.4089 3.82203C73.4089 1.7205 71.6978 0.0356445 69.6045 0.0356445H32.5996V10.1448H47.3434V57.1214H58.6469V10.1448H73.4089V3.82203Z" fill="#040404"/>
<path d="M262.383 14.1483C259.798 14.8548 257.378 16.0868 255.302 17.7897C253.081 19.692 251.352 22.1197 250.297 24.8371C248.987 28.2973 248.35 31.9932 248.458 35.6891V57.1212L259.599 57.1392V34.3845C259.599 31.0513 260.326 28.6236 261.82 27.0836C263.311 25.5436 265.586 24.7467 268.664 24.7467H272.322V12.9707H270.738C267.917 12.9707 265.096 13.3693 262.383 14.1483Z" fill="#040404"/>
<path d="M295.674 24.7484C297.787 24.7484 299.479 23.0454 299.479 20.962V12.9906L286.756 13.0088V3.80546C286.756 1.70392 285.045 0.00094742 282.934 0.0190641L275.615 0.0371809V35.2741C275.507 38.97 276.144 42.6657 277.454 46.1261C278.529 48.8436 280.238 51.2712 282.459 53.1736C284.535 54.8764 286.938 56.1084 289.54 56.8149C292.253 57.6121 295.074 57.9925 297.895 57.9925H299.479V46.2348H295.821C292.743 46.2348 290.468 45.4557 288.977 43.8977C287.484 42.3579 286.756 39.9302 286.756 36.5967V24.7665H295.674V24.7484Z" fill="#040404"/>
<path d="M217.006 0.0189209C214.803 0.0189209 212.837 1.41391 212.146 3.49733L193.998 57.1227H205.939L209.452 45.3288H230.784L234.443 57.1227H246.365L226.453 0.0189209H217.006ZM212.455 35.6907L220.081 11.4506L227.709 35.6907H212.455Z" fill="#040404"/>
<path d="M16.3096 57.0863H27.8678V14.9468H16.3096V57.0863Z" fill="#040404"/>
<path d="M0 18.7513V27.1936H11.5219V14.9468H3.82243C1.711 14.9468 0 16.6497 0 18.7513Z" fill="#040404"/>
<path d="M27.8316 0H20.7691H20.132C19.0945 0 18.1662 0.416685 17.4745 1.06889C17.4381 1.10512 17.4199 1.12324 17.3835 1.15947C16.71 1.8479 16.3096 2.77186 16.3096 3.8045V4.45672V10.1273H27.8316V0Z" fill="#040404"/>
<path d="M11.5219 44.8572H0V57.086H11.5219V44.8572Z" fill="#040404"/>
</svg>
