<svg width="208" height="100" viewBox="0 0 208 100" fill="none" xmlns="http://www.w3.org/2000/svg">
<g clip-path="url(#clip0_370:1173)">
<path d="M44.0334 93.7928C42.4794 95.476 40.5727 96.7402 38.3152 97.5909C36.0562 98.4392 33.5839 98.8655 30.8963 98.8655C26.3065 98.8655 22.7406 97.4449 20.1998 94.6016C17.658 91.7616 16.3506 87.6265 16.2778 82.1988V75.0176C16.2778 69.5172 17.4803 65.2818 19.8847 62.3123C22.2891 59.3437 25.7947 57.8576 30.4027 57.8576C34.7361 57.8576 38.0034 58.9269 40.2078 61.0655C42.4101 63.2041 43.6851 66.5564 44.0334 71.1247H36.1896C35.9701 68.5861 35.4395 66.854 34.5986 65.9305C33.7577 65.0073 32.4406 64.5457 30.6499 64.5457C28.473 64.5457 26.8923 65.341 25.9036 66.9311C24.9168 68.5212 24.405 71.0521 24.3688 74.5243V81.7608C24.3688 85.3972 24.912 88.0422 26.0009 89.6956C27.0889 91.3511 28.8756 92.1774 31.3621 92.1774C32.9531 92.1774 34.2417 91.8578 35.2287 91.217L35.9424 90.7239V83.4045H30.2922V77.3194H44.0334V93.7928Z" fill="#040404"/>
<path d="M63.4469 77.018H68.0273C69.6365 77.018 70.8422 76.4839 71.6475 75.4146C72.4522 74.3453 72.854 72.9168 72.854 71.1247C72.854 67.1223 71.2907 65.1217 68.1647 65.1217H63.4469V77.018ZM67.4508 83.7336H63.4469V98.317H55.3828V58.4061H68.2468C72.287 58.4061 75.4092 59.4518 77.6129 61.5453C79.8157 63.6382 80.9173 66.6116 80.9173 70.4665C80.9173 75.7673 78.9876 79.4762 75.1305 81.595L82.1245 97.9326V98.317H73.4572L67.4508 83.7336Z" fill="#040404"/>
<path d="M110.972 75.2645C110.972 71.6637 110.459 68.9861 109.436 67.2327C108.412 65.4792 106.821 64.6008 104.663 64.6008C102.524 64.6008 100.942 65.4477 99.9183 67.1356C98.8942 68.8267 98.3645 71.3994 98.3273 74.8534V81.9525C98.3273 85.442 98.8484 88.0148 99.8908 89.6679C100.933 91.3237 102.542 92.1497 104.718 92.1497C106.821 92.1497 108.383 91.3408 109.408 89.7233C110.431 88.1055 110.952 85.5984 110.972 82.1988V75.2645ZM119.063 81.9525C119.063 87.3069 117.796 91.4633 115.263 94.4241C112.73 97.3843 109.216 98.8655 104.718 98.8655C100.238 98.8655 96.7189 97.3976 94.1583 94.4659C91.5984 91.5328 90.3003 87.4253 90.2642 82.1435V75.3198C90.2642 69.8368 91.5354 65.5558 94.077 62.4766C96.6178 59.3988 100.146 57.8576 104.663 57.8576C109.106 57.8576 112.609 59.3711 115.168 62.3952C117.727 65.42 119.026 69.6633 119.063 75.1265V81.9525Z" fill="#040404"/>
<path d="M155.315 58.4061V86.0364C155.28 90.1849 154.137 93.3596 151.888 95.5604C149.638 97.7645 146.41 98.8655 142.206 98.8655C137.928 98.8655 134.66 97.7503 132.402 95.5218C130.143 93.2925 129.014 90.0665 129.014 85.8445V58.4061H137.133V85.8721C137.133 88.1394 137.498 89.7548 138.229 90.7239C138.961 91.6921 140.285 92.1774 142.206 92.1774C144.127 92.1774 145.444 91.696 146.156 90.7372C146.869 89.7784 147.234 88.2024 147.253 86.0079V58.4061H155.315Z" fill="#040404"/>
<path d="M172.867 77.5665H178.407C179.942 77.5665 181.13 77.0639 181.971 76.0592C182.812 75.0554 183.232 73.5908 183.232 71.6732C183.232 69.6815 182.804 68.0968 181.945 66.917C181.084 65.7388 179.933 65.1391 178.488 65.1217H172.867V77.5665ZM172.867 84.2821V98.317H164.802V58.4061H178.407C182.355 58.4061 185.504 59.6318 187.855 62.0797C190.204 64.5283 191.38 67.7077 191.38 71.6186C191.38 75.5281 190.216 78.6176 187.896 80.8833C185.575 83.1498 182.355 84.2821 178.242 84.2821H172.867Z" fill="#040404"/>
<path d="M8.57971 33.6239H22.7315V40.312H0.516602V0.401917H8.57971V33.6239Z" fill="#040404"/>
<path d="M54.7592 23.0439H42.1986V33.6239H57.0633V40.312H34.1353V0.401917H57.0087V7.11747H42.1986V16.547H54.7592V23.0439Z" fill="#040404"/>
<path d="M82.2893 29.3484L89.0086 0.401917H98.0035L86.4841 40.312H78.0926L66.6562 0.401917H75.5966L82.2893 29.3484Z" fill="#040404"/>
<path d="M128.276 23.0439H115.714V33.6239H130.58V40.312H107.649V0.401917H130.524V7.11747H115.714V16.547H128.276V23.0439Z" fill="#040404"/>
<path d="M150.046 19.0146H154.628C156.236 19.0146 157.442 18.4795 158.248 17.411C159.051 16.3417 159.453 14.9126 159.453 13.1213C159.453 9.11949 157.89 7.11747 154.763 7.11747H150.046V19.0146ZM154.05 25.7294H150.046V40.312H141.981V0.401917H154.846C158.887 0.401917 162.008 1.44919 164.212 3.54111C166.415 5.63323 167.517 8.60737 167.517 12.4631C167.517 17.7637 165.587 21.4728 161.729 23.5924L168.724 39.9284V40.312H160.057L154.05 25.7294Z" fill="#040404"/>
<path d="M192.304 14.1078L197.679 0.401917H206.92L197.541 20.1928L207.141 40.312H197.788L192.304 26.3599L186.846 40.312H177.494L187.093 20.1928L177.684 0.401917H186.927L192.304 14.1078Z" fill="#040404"/>
</g>
<defs>
<clipPath id="clip0_370:1173">
<rect width="207.692" height="100" fill="white"/>
</clipPath>
</defs>
</svg>
