<svg width="150" height="31" viewBox="0 0 150 31" fill="none" xmlns="http://www.w3.org/2000/svg">
<path d="M48 7H59.9426V10H50.9857V13H59.9426V16H50.9857V22H59.9426V25H48V7ZM59.9426 10H62.9282V13H59.9426V10ZM59.9426 16H62.9282V22H59.9426V16ZM65.9071 7H68.8927V25H65.9071V7ZM71.8842 7H86.8125V10H80.8412V25H77.8555V10H71.8842V7ZM87.3033 16H96.2602V19H87.3033V16ZM102.243 7H111.2V10H102.243V7ZM99.2575 10H102.243V22H99.2575V10ZM111.2 10H114.186V13H111.2V10ZM111.2 19H114.186V22H111.2V19ZM102.243 22H111.2V25H102.243V22ZM117.165 7H120.15V22H117.165V7ZM129.107 7H132.093V22H129.107V7ZM120.15 22H129.107V25H120.15V22ZM135.072 7H147.014V10H138.057V19H147.014V22H138.057V25H135.072V7ZM147.014 10H150V19H147.014V10Z" fill="#2DAF58"/>
<path fill-rule="evenodd" clip-rule="evenodd" d="M24.5 0H3.5V1.72222H5.25V5.16667H1.75V6.88889H0V13.7778H1.75V15.5H3.5V17.2222H5.25H8.75V18.9444H10.5V20.6667H12.25V27.5556H8.75V31H19.25V27.5556H15.75V20.6667H17.5V18.9444H19.25V17.2222H22.75H24.5V15.5H26.25V13.7778H28V6.88889H26.25V5.16667H22.75V1.72222H24.5V0ZM26.25 6.88889V13.7778H24.5V15.5H22.75V6.88889H26.25ZM3.5 15.5V13.7778H1.75V6.88889H5.25V15.5H3.5Z" fill="#2DAF58"/>
</svg>
