<svg width="154" height="100" viewBox="0 0 154 100" fill="none" xmlns="http://www.w3.org/2000/svg">
<g clip-path="url(#clip0_370:1187)">
<path fill-rule="evenodd" clip-rule="evenodd" d="M15.1746 0.107392C10.308 0.437727 6.17478 1.80141 3.87072 4.48136C0.962527 7.8694 0.682282 11.2202 0.41714 16.7037C-0.0762298 27.1236 0.272815 37.7096 0.133532 48.1736C-0.113857 53.262 -0.0174197 58.3616 0.422171 63.4367C1.27801 69.8011 9.16353 72.088 14.7416 72.5489C15.9834 72.6522 17.1732 72.6336 18.4335 72.6402C21.7427 72.6607 19.244 77.1549 21.6739 81.2951C23.0283 83.6007 34.2212 83.3973 35.2147 82.552C36.3893 81.5593 36.0136 76.4247 35.5034 75.664C34.364 73.97 26.6697 76.3096 29.4219 71.302C29.9017 70.4296 30.8801 70.0433 31.5614 69.4522C35.0436 66.4267 35.3591 63.6451 35.5973 57.7311C35.9447 49.0798 36.3759 18.5688 35.2735 11.2879C33.7262 1.06282 23.8537 -0.477044 15.1712 0.107392H15.1746ZM19.8951 13.2462C20.4937 17.3007 20.6754 21.4068 20.4372 25.4991L20.4103 52.954C20.3868 55.2613 20.7073 60.9482 18.994 61.8562C18.5786 62.0662 18.1081 62.1387 17.6496 62.0633C17.191 61.9878 16.7677 61.7684 16.4399 61.436C15.2148 60.0231 15.574 51.0618 15.574 48.6342V21.1793C15.5941 19.0076 15.3323 13.3123 17.0205 12.3704C17.2384 12.2339 17.4819 12.1442 17.7357 12.1068C17.9894 12.0696 18.2481 12.0854 18.4956 12.1536C18.8125 12.1673 19.1175 12.2797 19.3687 12.4753C19.6198 12.6709 19.8049 12.9402 19.8985 13.2462H19.8951Z" fill="#040404"/>
<path fill-rule="evenodd" clip-rule="evenodd" d="M60.1009 69.3987C60.5455 70.9233 59.871 71.9142 61.519 72.4191C62.108 72.5987 73.2105 72.8138 74.2425 72.1582C75.3484 71.4553 75.1353 70.178 75.1353 68.5687V18.9016C75.1353 14.5277 75.313 14.2041 70.8409 14.2041C67.8902 14.0639 64.9341 14.0826 61.9854 14.26C59.6915 14.692 60.3073 18.2427 60.3073 21.524C60.3073 26.5382 60.5002 59.6396 60.027 61.8264C59.7082 63.2969 58.599 63.4138 56.9679 63.2749C55.706 60.9031 55.8971 58.274 55.8569 55.3044C55.689 43.1684 55.81 30.4904 55.8133 18.285C55.8133 13.8806 55.3771 14.2041 50.6631 14.2041C48.928 14.2041 42.8313 13.8856 41.8229 14.6073C40.7823 15.3527 40.9937 16.8604 40.9954 18.4392C40.9954 32.2031 40.8359 46.2076 41.0944 59.924C41.0029 62.6367 41.4139 65.3427 42.306 67.9029C43.3512 70.1516 45.1935 71.9229 47.4692 72.8673C49.7451 73.8116 52.2887 73.8602 54.5983 73.0036C57.5082 71.872 58.8575 69.5547 60.0925 69.3987" fill="#040404"/>
<path fill-rule="evenodd" clip-rule="evenodd" d="M136.852 54.0287C137.374 54.8858 139.124 66.9167 139.469 69.0224C140.083 72.778 140.86 72.5307 144.646 72.5307C153.35 72.5307 154.739 73.4573 153.707 69.1291C151.828 61.1944 149.459 51.8213 147.847 44.1931C147.124 40.7696 149.321 32.7569 150.086 29.1876C150.615 26.7211 151.093 24.4256 151.622 21.9337C153.558 12.864 154.063 14.2039 144.333 14.2039C140.363 14.2039 140.016 14.2853 139.403 18.1087C139.084 20.0974 137.297 32.5078 136.846 33.2245C136.31 32.6196 136.27 30.8207 136.112 29.8093C135.923 28.5913 135.721 27.3056 135.532 26.0993C135.131 23.5582 134.753 21.1511 134.357 18.6304C133.817 15.2034 133.958 14.1955 130.123 14.2039C119.368 14.2243 120.823 11.8323 124.557 28.6947C125.32 32.1436 127.542 39.8598 127.315 43.0938C127.2 44.7369 124.949 54.8451 124.443 57.2811C123.951 59.6444 123.464 62.0464 122.959 64.4062C120.967 73.7471 120.247 72.5291 129.504 72.5375C133.296 72.5375 133.681 72.4273 134.265 68.7615L136.052 57.5811C136.158 56.9271 136.248 56.3749 136.344 55.7516C136.392 55.4347 136.426 55.096 136.486 54.8044L136.852 54.0287Z" fill="#040404"/>
<path fill-rule="evenodd" clip-rule="evenodd" d="M80.5125 3.93942V69.9554C80.5125 71.7476 81.2893 72.5303 83.0665 72.5303H93.3031C94.9813 72.5303 95.6978 71.641 95.6978 69.9554V3.93942C95.6978 2.15392 94.9243 1.40686 93.1504 1.40686H83.0649C81.3045 1.40686 80.5107 2.19627 80.5107 3.93942" fill="#040404"/>
<path fill-rule="evenodd" clip-rule="evenodd" d="M102.319 14.3765C101.056 14.8712 100.999 15.9909 101.002 17.5104V68.2582C101.002 72.8236 101.467 72.5289 105.833 72.5289C117.569 72.5289 116.26 74.0213 116.26 64.7109V18.5912C116.26 13.848 115.892 14.202 111.334 14.202C108.328 14.0673 105.317 14.1239 102.318 14.3714" fill="#040404"/>
<path fill-rule="evenodd" clip-rule="evenodd" d="M102.399 1.53337C100.663 2.11441 101.005 4.24379 101.005 6.10722C101.005 8.17902 100.728 10.2169 102.639 10.5828C103.371 10.7217 114.24 10.6946 114.809 10.5439C116.623 10.0645 116.262 7.87577 116.262 5.95306C116.262 3.88128 116.598 1.78916 114.544 1.45544C113.567 1.29789 102.953 1.35549 102.399 1.54014" fill="#040404"/>
<path d="M66.5016 95.3257C67.6067 95.9944 68.8684 96.3535 70.1567 96.366C72.2425 96.366 73.4609 95.2529 73.4609 93.6453C73.4609 92.1562 72.6218 91.3042 70.4838 90.4758C67.9079 89.5542 66.3155 88.2058 66.3155 85.9596C66.3155 83.476 68.3527 81.6313 71.4219 81.6313C72.6328 81.5893 73.8342 81.8582 74.9142 82.4122L74.3503 84.0911C73.4285 83.5909 72.3978 83.3307 71.3515 83.3338C69.1968 83.3338 68.3762 84.6364 68.3762 85.7224C68.3762 87.2131 69.3361 87.9467 71.5159 88.7987C74.1858 89.8371 75.5434 91.1398 75.5434 93.4809C75.5434 95.9406 73.7378 98.07 70.0056 98.07C68.5989 98.0869 67.2116 97.7366 65.978 97.0535L66.5016 95.3257Z" fill="#040404"/>
<path d="M81.852 97.8338V91.0696L76.8613 81.8914H79.1806L81.4056 86.2958C82.0148 87.5036 82.483 88.4742 82.9747 89.5856H83.0235C83.4681 88.5438 84.0067 87.5036 84.6159 86.2958L86.888 81.8914H89.2073L83.9128 91.0389V97.8269L81.852 97.8338Z" fill="#040404"/>
<path d="M90.4283 95.3209C91.5334 95.9896 92.7951 96.3487 94.0832 96.3611C96.1692 96.3611 97.3858 95.248 97.3858 93.6404C97.3858 92.1513 96.5467 91.2993 94.4105 90.4709C91.8346 89.5493 90.242 88.2009 90.242 85.9546C90.242 83.4711 92.2776 81.6264 95.3469 81.6264C96.5582 81.5846 97.7602 81.8533 98.8407 82.4073L98.2768 84.0862C97.3552 83.586 96.3245 83.3258 95.278 83.3289C93.1218 83.3289 92.3027 84.6315 92.3027 85.7175C92.3027 87.2082 93.2626 87.9418 95.4426 88.7938C98.1125 89.8322 99.4701 91.1349 99.4701 93.476C99.4701 95.9358 97.6643 98.0651 93.9406 98.0651C92.5339 98.0822 91.1466 97.732 89.9131 97.0487L90.4283 95.3209Z" fill="#040404"/>
<path d="M105.263 83.6396H100.459V81.8881H112.15V83.6381H107.317V97.8287H105.263V83.6396Z" fill="#040404"/>
<path d="M122.085 90.3583H115.946V96.106H122.788V97.8323H113.909V81.8881H122.437V83.6125H115.946V88.6523H122.085V90.3583Z" fill="#040404"/>
<path d="M138.743 90.8274C138.628 88.6049 138.487 85.9316 138.508 83.9447H138.438C137.899 85.8081 137.243 87.8003 136.448 89.9989L133.662 97.7338H132.115L129.561 90.1414C128.811 87.8952 128.178 85.8367 127.733 83.9447H127.686C127.639 85.9316 127.518 88.6049 127.381 90.9934L126.96 97.8287H125.015L126.116 81.8881H128.717L131.412 89.5976C132.068 91.561 132.606 93.3109 133.004 94.9658H133.075C133.472 93.3583 134.036 91.6083 134.738 89.5976L137.55 81.8881H140.151L141.135 97.8287H139.143L138.743 90.8274Z" fill="#040404"/>
<path d="M143.997 95.3225C145.102 95.9909 146.363 96.35 147.651 96.3627C149.738 96.3627 150.955 95.2496 150.955 93.642C150.955 92.1529 150.116 91.3009 147.979 90.4725C145.403 89.5509 143.809 88.2025 143.809 85.9562C143.809 83.4729 145.847 81.628 148.916 81.628C150.127 81.5862 151.328 81.8549 152.408 82.4089L151.844 84.0878C150.923 83.5871 149.892 83.3269 148.845 83.3304C146.691 83.3304 145.872 84.6333 145.872 85.7191C145.872 87.2098 146.832 87.9433 149.011 88.7953C151.681 89.8338 153.039 91.1367 153.039 93.4778C153.039 95.9373 151.235 98.0669 147.501 98.0669C146.094 98.084 144.707 97.7338 143.474 97.0505L143.997 95.3225Z" fill="#040404"/>
</g>
<defs>
<clipPath id="clip0_370:1187">
<rect width="154" height="100" fill="white"/>
</clipPath>
</defs>
</svg>
