<svg width="380" height="51" viewBox="0 0 380 51" fill="none" xmlns="http://www.w3.org/2000/svg">
<path d="M36.0663 49.21V14.4141H56.7969V1.75267H0.241699V14.4141H20.9715V49.21H36.0663ZM77.9324 1.75267H62.8379V49.21H77.9324V1.75267ZM88.9788 1.75267V49.21H102.866V22.9886L128.728 49.21H141.609V1.75267H127.722V27.774L102.463 1.75267H88.9788ZM171.277 31.2636L188.685 49.21H208.107L183.855 24.4844L207.202 1.75267H188.887L171.277 19.5985H167.251V1.75267H152.659V49.21H167.251V31.2636H171.277ZM238.132 0.456299C218.509 0.456299 206.735 11.4229 206.735 25.5808C206.735 39.7381 218.509 50.7047 238.132 50.7047C257.654 50.7047 269.428 39.7381 269.428 25.5808C269.428 11.4229 257.654 0.456299 238.132 0.456299ZM238.132 39.1396C228.371 39.1396 222.131 33.3573 222.131 25.5808C222.131 17.8042 228.371 12.1214 238.132 12.1214C247.793 12.1214 254.132 17.8042 254.132 25.5808C254.132 33.3573 247.793 39.1396 238.132 39.1396ZM324.765 1.75267H276.362V49.21H290.953V32.6594H322.652V22.1906H290.953V13.8156H324.765V1.75267ZM379.7 1.75267H331.296V49.21H345.888V32.6594H377.587V22.1906H345.888V13.8156H379.7V1.75267Z" fill="#2DAF58"/>
</svg>